<?xml version="1.0" encoding="utf-8"?>
<!-- Generator: Adobe Illustrator 16.2.1, SVG Export Plug-In . SVG Version: 6.00 Build 0)  -->
<!DOCTYPE svg PUBLIC "-//W3C//DTD SVG 1.1//EN" "http://www.w3.org/Graphics/SVG/1.1/DTD/svg11.dtd">
<svg version="1.1" id="Layer_1" xmlns="http://www.w3.org/2000/svg" xmlns:xlink="http://www.w3.org/1999/xlink" x="0px" y="0px"
	 width="407.124px" height="158.813px" viewBox="0 0 407.124 158.813" enable-background="new 0 0 407.124 158.813"
	 xml:space="preserve">
<g>
	<g>
		<path d="M406.361,96.591c-0.265-2.395-0.989-4.691-2.154-6.818c-1.168-2.14-2.748-4.054-4.696-5.689
			c-0.765-0.643-1.592-1.241-2.471-1.791l2.442-2.655l0.843-1.402l-0.04-0.708c-0.264-4.77-0.852-9.318-1.371-13.329
			c-0.457-3.532-0.888-6.868-1.019-9.738c-0.254-5.596-0.46-10.677-0.612-15.102c-0.137-3.899-0.217-6.798-0.264-8.766
			c-0.044-1.858-0.059-2.895-0.062-3.183l-0.032-2.221l-2.219-0.056c-3.484-0.09-7.209-0.217-11.389-0.389
			c-3.615-0.15-6.988-0.313-9.897-0.465c-2.9-0.15-5.339-0.29-7.104-0.397c-1.793-0.107-3.939-0.183-3.939-0.183l-1.532-0.054
			l-0.893,1.924c0,0-1.588,3.625-1.824,4.142l-3.845,9.353c-2.585-6.894-4.672-12.489-6.192-16.57
			c-1.239-3.322-2.113-5.675-2.577-6.926l-1.289-3.464l-2.812-0.21c-0.495-0.037-1.886-0.142-4.004-0.288
			c-2.105-0.148-5.535-0.381-9.893-0.653c-4.814-0.301-9.595-0.576-14.207-0.82c-5.93-0.314-11.688-0.583-17.11-0.8l-3.265-0.129
			l-1.403,3.565l-10.227,30.577c-0.106-0.405-0.22-0.805-0.339-1.199c-1.35-4.463-3.525-7.386-6.467-10.512
			c-3.031-3.222-6.936-5.74-11.603-7.485c-4.734-1.768-10.392-2.789-16.813-3.035c-7.399-0.287-14.109,0.348-19.938,1.88
			c-6.009,1.583-11.242,4.162-15.554,7.665c-2.779,2.256-5.22,4.941-7.298,8.018l-2.702-10.095l-1.821-9l-4.002,0.175
			c-5.454,0.237-9.542,0.515-13.496,0.783c-3.007,0.204-5.847,0.396-8.968,0.544c-7.117,0.336-12.999,0.626-17.701,0.865
			c-4.702,0.237-8.231,0.427-10.646,0.559c-2.424,0.132-3.728,0.208-3.965,0.223l-0.532,0.032l-5.617-18.783l-1.079-3.302
			l-4.106,0.207c-5.145,0.164-30.832,3.185-33.752,3.53L92.24,4.731l-0.811,2.555c-0.911,2.862-2.784,7.671-4.444,11.932
			c-1.107,2.842-2.153,5.527-2.857,7.488c-0.01,0.028-0.021,0.057-0.032,0.086l-6.213-11.316l-1.221-1.669l-18,1.733
			c-4.391,0.423-8.241,0.79-11.446,1.095l-13.358,1.283L33.03,20.53c-3.567,11.254-7.285,23.275-11.051,35.729
			c-3.284,10.862-6.583,21.97-9.803,33.016c-3.146,10.788-5.653,19.57-7.202,25.037c-1.815,6.399-2.899,10.309-3.098,11.027
			l-1.109,4.006l50.532,28.678l0.555,0.026c0.775,0.034,1.557,0.063,2.342,0.08c0.781,0.019,1.566,0.026,2.347,0.028l0.437,0.001
			c0.639,0,1.277-0.005,1.914-0.016c0.777-0.013,1.551-0.032,2.317-0.056c2.347-0.076,4.814-0.209,7.335-0.398
			c2.036-0.152,4.08-0.338,6.073-0.552c1.751-0.188,3.193-0.366,4.222-0.502c1.047-0.138,1.679-0.232,1.794-0.249l1.705-0.263
			l0.234-1.71c0.896-6.575,1.643-12.001,2.295-16.676l2.686,2.461l0.947-0.034c3.36-0.122,6.712-0.271,9.964-0.443
			c1.829-0.095,3.515-0.194,5.045-0.288l15.947,14.695l1.046-0.116c2.713-0.299,5.674-0.578,8.801-0.827
			c2.649-0.212,5.367-0.4,8.076-0.559c2.48-0.146,4.7-0.256,6.518-0.337c1.821-0.079,3.242-0.13,4.13-0.159l3.313-0.03
			l-0.344-21.008l4.866,3.52l0.755-0.004c6.325-0.038,12.84-0.144,19.363-0.316c5.259-0.137,10.567-0.318,15.782-0.54
			c3.716-0.157,7.356-0.334,10.817-0.525c2.632-0.146,4.203-0.249,4.489-0.268l2.107-0.14l0.201-8.793
			c2.014,2.405,4.403,4.497,7.125,6.237c3.138,2.005,6.777,3.575,10.814,4.665c3.83,1.031,8.08,1.651,12.634,1.841
			c0.999,0.042,1.972,0.061,2.993,0.066c0.186,0,0.368-0.004,0.551-0.006l0.309-0.005c0.655-0.007,1.306-0.017,2.006-0.044
			l0.225-0.005c0.146-0.007,0.288-0.018,0.428-0.029l0.226-0.016c0.572-0.034,1.14-0.072,1.693-0.121
			c0.383-0.034,0.758-0.076,1.132-0.119l0.26-0.026c0.167-0.015,0.336-0.032,0.494-0.053c0.148-0.02,0.292-0.044,0.436-0.068
			l0.426-0.063c0.144-0.016,0.288-0.034,0.428-0.057c0.122-0.02,0.24-0.044,0.358-0.069l0.13-0.027
			c0.468-0.083,0.926-0.178,1.384-0.277l0.196-0.042c0.265-0.057,0.531-0.116,0.79-0.18c0.477-0.118,0.938-0.252,1.392-0.387
			l0.217-0.059c0.168-0.044,0.336-0.089,0.511-0.146c0.073-0.024,0.143-0.05,0.167-0.062c0.537-0.179,1.103-0.391,1.809-0.678
			c0.087-0.031,0.174-0.063,0.258-0.099l0.095-0.038c0.634-0.27,1.26-0.574,1.941-0.941l0.133-0.068
			c0.471-0.256,0.929-0.526,1.356-0.804c0.05-0.031,0.097-0.064,0.103-0.071c0.107-0.069,0.214-0.142,0.316-0.216l0.28-0.191
			c0.199-0.134,0.398-0.268,0.599-0.417c-0.532,3.833-1.095,8.034-1.418,10.432l-0.656,4.267l2.629,0.085
			c3.807,0.125,7.55,0.308,10.853,0.471l0.16,0.007c3.401,0.169,6.499,0.345,9.133,0.509c2.629,0.162,4.796,0.313,6.351,0.425
			l3.936,0.282l10.966-14.591c0.639,0.039,1.256,0.077,1.844,0.112c0.57,0.035,1.12,0.067,1.65,0.098
			c0.848,3.97,2.486,11.791,2.579,12.259c0.142,0.721,0.212,1.082,2.408,9.025l0.453,1.641l1.702,0.053
			c3.981,0.122,30.633,1.307,30.777,1.315l0.847,0.057l31.502-23.286l8.47-6.111l-1.925-5.051l15.069-13.622l1.144-1.126
			l-0.001-0.002c0.555-0.499,1.055-1.026,1.487-1.567c1.133-1.408,1.947-3.017,2.423-4.782
			C406.457,100.565,406.586,98.628,406.361,96.591"/>
		<path fill="none" stroke="#000000" stroke-width="1.31" stroke-miterlimit="10" d="M406.361,96.591
			c-0.265-2.395-0.989-4.691-2.154-6.818c-1.168-2.14-2.748-4.054-4.696-5.689c-0.765-0.643-1.592-1.241-2.471-1.791l2.442-2.655
			l0.843-1.402l-0.04-0.708c-0.264-4.77-0.852-9.318-1.371-13.329c-0.457-3.532-0.888-6.868-1.019-9.738
			c-0.254-5.596-0.46-10.677-0.612-15.102c-0.137-3.899-0.217-6.798-0.264-8.766c-0.044-1.858-0.059-2.895-0.062-3.183l-0.032-2.221
			l-2.219-0.056c-3.484-0.09-7.209-0.217-11.389-0.389c-3.615-0.15-6.988-0.313-9.897-0.465c-2.9-0.15-5.339-0.29-7.104-0.397
			c-1.793-0.107-3.939-0.183-3.939-0.183l-1.532-0.054l-0.893,1.924c0,0-1.588,3.625-1.824,4.142l-3.845,9.353
			c-2.585-6.894-4.672-12.489-6.192-16.57c-1.239-3.322-2.113-5.675-2.577-6.926l-1.289-3.464l-2.812-0.21
			c-0.495-0.037-1.886-0.142-4.004-0.288c-2.105-0.148-5.535-0.381-9.893-0.653c-4.814-0.301-9.595-0.576-14.207-0.82
			c-5.93-0.314-11.688-0.583-17.11-0.8l-3.265-0.129l-1.403,3.565l-10.227,30.577c-0.106-0.405-0.22-0.805-0.339-1.199
			c-1.35-4.463-3.525-7.386-6.467-10.512c-3.031-3.222-6.936-5.74-11.603-7.485c-4.734-1.768-10.392-2.789-16.813-3.035
			c-7.399-0.287-14.109,0.348-19.938,1.88c-6.009,1.583-11.242,4.162-15.554,7.665c-2.779,2.256-5.22,4.941-7.298,8.018
			l-2.702-10.095l-1.821-9l-4.002,0.175c-5.454,0.237-9.542,0.515-13.496,0.783c-3.007,0.204-5.847,0.396-8.968,0.544
			c-7.117,0.336-12.999,0.626-17.701,0.865c-4.702,0.237-8.231,0.427-10.646,0.559c-2.424,0.132-3.728,0.208-3.965,0.223
			l-0.532,0.032l-5.617-18.783l-1.079-3.302l-4.106,0.207c-5.145,0.164-30.832,3.185-33.752,3.53L92.24,4.731l-0.811,2.555
			c-0.911,2.862-2.784,7.671-4.444,11.932c-1.107,2.842-2.153,5.527-2.857,7.488c-0.01,0.028-0.021,0.057-0.032,0.086l-6.213-11.316
			l-1.221-1.669l-18,1.733c-4.391,0.423-8.241,0.79-11.446,1.095l-13.358,1.283L33.03,20.53
			c-3.567,11.254-7.285,23.275-11.051,35.729c-3.284,10.862-6.583,21.97-9.803,33.016c-3.146,10.788-5.653,19.57-7.202,25.037
			c-1.815,6.399-2.899,10.309-3.098,11.027l-1.109,4.006l50.532,28.678l0.555,0.026c0.775,0.034,1.557,0.063,2.342,0.08
			c0.781,0.019,1.566,0.026,2.347,0.028l0.437,0.001c0.639,0,1.277-0.005,1.914-0.016c0.777-0.013,1.551-0.032,2.317-0.056
			c2.347-0.076,4.814-0.209,7.335-0.398c2.036-0.152,4.08-0.338,6.073-0.552c1.751-0.188,3.193-0.366,4.222-0.502
			c1.047-0.138,1.679-0.232,1.794-0.249l1.705-0.263l0.234-1.71c0.896-6.575,1.643-12.001,2.295-16.676l2.686,2.461l0.947-0.034
			c3.36-0.122,6.712-0.271,9.964-0.443c1.829-0.095,3.515-0.194,5.045-0.288l15.947,14.695l1.046-0.116
			c2.713-0.299,5.674-0.578,8.801-0.827c2.649-0.212,5.367-0.4,8.076-0.559c2.48-0.146,4.7-0.256,6.518-0.337
			c1.821-0.079,3.242-0.13,4.13-0.159l3.313-0.03l-0.344-21.008l4.866,3.52l0.755-0.004c6.325-0.038,12.84-0.144,19.363-0.316
			c5.259-0.137,10.567-0.318,15.782-0.54c3.716-0.157,7.356-0.334,10.817-0.525c2.632-0.146,4.203-0.249,4.489-0.268l2.107-0.14
			l0.201-8.793c2.014,2.405,4.403,4.497,7.125,6.237c3.138,2.005,6.777,3.575,10.814,4.665c3.83,1.031,8.08,1.651,12.634,1.841
			c0.999,0.042,1.972,0.061,2.993,0.066c0.186,0,0.368-0.004,0.551-0.006l0.309-0.005c0.655-0.007,1.306-0.017,2.006-0.044
			l0.225-0.005c0.146-0.007,0.288-0.018,0.428-0.029l0.226-0.016c0.572-0.034,1.14-0.072,1.693-0.121
			c0.383-0.034,0.758-0.076,1.132-0.119l0.26-0.026c0.167-0.015,0.336-0.032,0.494-0.053c0.148-0.02,0.292-0.044,0.436-0.068
			l0.426-0.063c0.144-0.016,0.288-0.034,0.428-0.057c0.122-0.02,0.24-0.044,0.358-0.069l0.13-0.027
			c0.468-0.083,0.926-0.178,1.384-0.277l0.196-0.042c0.265-0.057,0.531-0.116,0.79-0.18c0.477-0.118,0.938-0.252,1.392-0.387
			l0.217-0.059c0.168-0.044,0.336-0.089,0.511-0.146c0.073-0.024,0.143-0.05,0.167-0.062c0.537-0.179,1.103-0.391,1.809-0.678
			c0.087-0.031,0.174-0.063,0.258-0.099l0.095-0.038c0.634-0.27,1.26-0.574,1.941-0.941l0.133-0.068
			c0.471-0.256,0.929-0.526,1.356-0.804c0.05-0.031,0.097-0.064,0.103-0.071c0.107-0.069,0.214-0.142,0.316-0.216l0.28-0.191
			c0.199-0.134,0.398-0.268,0.599-0.417c-0.532,3.833-1.095,8.034-1.418,10.432l-0.656,4.267l2.629,0.085
			c3.807,0.125,7.55,0.308,10.853,0.471l0.16,0.007c3.401,0.169,6.499,0.345,9.133,0.509c2.629,0.162,4.796,0.313,6.351,0.425
			l3.936,0.282l10.966-14.591c0.639,0.039,1.256,0.077,1.844,0.112c0.57,0.035,1.12,0.067,1.65,0.098
			c0.848,3.97,2.486,11.791,2.579,12.259c0.142,0.721,0.212,1.082,2.408,9.025l0.453,1.641l1.702,0.053
			c3.981,0.122,30.633,1.307,30.777,1.315l0.847,0.057l31.502-23.286l8.47-6.111l-1.925-5.051l15.069-13.622l1.144-1.126
			l-0.001-0.002c0.555-0.499,1.055-1.026,1.487-1.567c1.133-1.408,1.947-3.017,2.423-4.782
			C406.457,100.565,406.586,98.628,406.361,96.591z"/>
	</g>
	<g>
		<defs>
			<path id="SVGID_1_" d="M73.737,18.269c-0.001,0.255-0.006,1.655-0.028,4.025c-0.019,2.394-0.054,5.797-0.115,10.045
				c-0.061,4.321-0.145,9.544-0.268,15.512c-0.126,6.106-0.289,13.02-0.502,20.572l30.135,37.875
				c-0.165-6.588-0.344-12.652-0.52-18.031c-0.168-5.277-0.337-9.917-0.486-13.766c-0.145-3.794-0.273-6.843-0.366-8.993
				c-0.092-2.131-0.152-3.39-0.163-3.62L75.396,16.43L73.737,18.269z"/>
		</defs>
		<clipPath id="SVGID_2_">
			<use xlink:href="#SVGID_1_"  overflow="visible"/>
		</clipPath>
		
			<linearGradient id="SVGID_3_" gradientUnits="userSpaceOnUse" x1="-113.8682" y1="760.7026" x2="-112.8682" y2="760.7026" gradientTransform="matrix(30.1355 0 0 -30.1355 3504.291 22985.5195)">
			<stop  offset="0" style="stop-color:#231F20"/>
			<stop  offset="0.0491" style="stop-color:#231F20"/>
			<stop  offset="1" style="stop-color:#000000"/>
		</linearGradient>
		<rect x="72.824" y="16.43" clip-path="url(#SVGID_2_)" fill="url(#SVGID_3_)" width="30.135" height="89.868"/>
	</g>
	<g>
		<defs>
			<path id="SVGID_4_" d="M51.407,77.671c-0.872,3.836-1.718,7.629-2.63,11.817c-0.928,4.247-1.926,8.915-3.098,14.478
				c-1.198,5.673-2.826,12.612-4.519,20.775l39.124,29.359c0.935-6.86,1.707-12.467,2.378-17.277
				c0.663-4.735,1.23-8.72,1.764-12.363c0.527-3.597,1.021-6.864,1.536-10.177c0.509-3.275,1.039-6.593,1.638-10.304L54.151,65.802
				C53.154,70.063,52.27,73.889,51.407,77.671"/>
		</defs>
		<clipPath id="SVGID_5_">
			<use xlink:href="#SVGID_4_"  overflow="visible"/>
		</clipPath>
		
			<linearGradient id="SVGID_6_" gradientUnits="userSpaceOnUse" x1="-112.8306" y1="761.2329" x2="-111.8306" y2="761.2329" gradientTransform="matrix(46.4399 0 0 -46.4399 5281.0239 35461.5078)">
			<stop  offset="0" style="stop-color:#231F20"/>
			<stop  offset="0.0491" style="stop-color:#231F20"/>
			<stop  offset="1" style="stop-color:#000000"/>
		</linearGradient>
		<rect x="41.161" y="65.802" clip-path="url(#SVGID_5_)" fill="url(#SVGID_6_)" width="46.44" height="88.299"/>
	</g>
	<g>
		<defs>
			<path id="SVGID_7_" d="M99.125,57.795c-1.58,4.313-3.277,8.826-5.012,13.557c-1.766,4.807-3.576,9.847-5.353,15.129
				c-1.811,5.379-3.589,11.018-5.254,16.931l29.612,32.996c1.1-5.034,2.31-9.85,3.559-14.464c1.23-4.544,2.503-8.894,3.75-13.062
				c1.232-4.111,2.442-8.047,3.571-11.816c1.111-3.723,2.145-7.287,3.041-10.702l-23.646-40.738
				C102.127,49.5,100.682,53.552,99.125,57.795"/>
		</defs>
		<clipPath id="SVGID_8_">
			<use xlink:href="#SVGID_7_"  overflow="visible"/>
		</clipPath>
		
			<linearGradient id="SVGID_9_" gradientUnits="userSpaceOnUse" x1="-112.958" y1="761.1665" x2="-111.958" y2="761.1665" gradientTransform="matrix(43.5332 0 0 -43.5332 5000.9546 33227.0156)">
			<stop  offset="0" style="stop-color:#231F20"/>
			<stop  offset="0.0491" style="stop-color:#231F20"/>
			<stop  offset="1" style="stop-color:#000000"/>
		</linearGradient>
		<rect x="83.506" y="45.626" clip-path="url(#SVGID_8_)" fill="url(#SVGID_9_)" width="43.533" height="90.782"/>
	</g>
	<g>
		<defs>
			<path id="SVGID_10_" d="M80.98,103.618c-1.5,0.119-3.628,0.273-6.301,0.449c-2.676,0.176-5.896,0.369-9.579,0.56
				c-3.684,0.19-9.307,2.15-13.831,2.311l37.149,30.917c3.636-0.133,6.969-0.286,9.926-0.441c2.959-0.156,5.544-0.315,7.692-0.461
				c2.146-0.146,3.854-0.276,5.055-0.373c1.203-0.097,1.901-0.159,2.027-0.171l-29.612-32.996
				C83.348,103.427,82.478,103.501,80.98,103.618"/>
		</defs>
		<clipPath id="SVGID_11_">
			<use xlink:href="#SVGID_10_"  overflow="visible"/>
		</clipPath>
		
			<linearGradient id="SVGID_12_" gradientUnits="userSpaceOnUse" x1="-109.5967" y1="759.6255" x2="-108.5967" y2="759.6255" gradientTransform="matrix(0 34.4416 34.4416 0 -26080.5117 3878.1108)">
			<stop  offset="0" style="stop-color:#3F4143"/>
			<stop  offset="1" style="stop-color:#000000"/>
		</linearGradient>
		<rect x="51.27" y="103.413" clip-path="url(#SVGID_11_)" fill="url(#SVGID_12_)" width="61.849" height="34.441"/>
	</g>
	<g>
		<defs>
			<polygon id="SVGID_13_" points="127.499,119.172 148.994,149.789 147.472,56.977 131.019,3.14 			"/>
		</defs>
		<clipPath id="SVGID_14_">
			<use xlink:href="#SVGID_13_"  overflow="visible"/>
		</clipPath>
		
			<linearGradient id="SVGID_15_" gradientUnits="userSpaceOnUse" x1="-115.0542" y1="760.0972" x2="-114.0542" y2="760.0972" gradientTransform="matrix(21.4953 0 0 -21.4953 2600.626 16414.9883)">
			<stop  offset="0" style="stop-color:#231F20"/>
			<stop  offset="0.0491" style="stop-color:#231F20"/>
			<stop  offset="1" style="stop-color:#000000"/>
		</linearGradient>
		<rect x="127.499" y="3.14" clip-path="url(#SVGID_14_)" fill="url(#SVGID_15_)" width="21.494" height="146.649"/>
	</g>
	<g>
		<defs>
			<path id="SVGID_16_" d="M127.403,119.174c-0.057,0.001-0.14,0.002-0.249,0.006c-0.108,0.004-0.242,0.007-0.401,0.012
				c-0.16,0.004-0.345,0.009-0.556,0.016c-1.116,0.036-2.906,0.099-5.197,0.199c-2.29,0.099-5.083,0.235-8.202,0.417
				c-3.122,0.18-6.573,0.405-10.178,0.683c-3.609,0.282-9.294,2.54-13.047,2.937l30.678,28.271c2.988-0.331,5.991-0.605,8.87-0.836
				c2.877-0.228,5.631-0.415,8.125-0.561c2.492-0.148,4.723-0.257,6.554-0.34c1.831-0.079,3.262-0.13,4.153-0.159
				c0.168-0.005,0.316-0.01,0.445-0.013c0.127-0.004,0.234-0.008,0.32-0.01c0.087-0.001,0.154-0.004,0.2-0.006
				c0.045-0.002,0.071-0.003,0.075-0.003l-21.495-30.615C127.492,119.172,127.46,119.173,127.403,119.174"/>
		</defs>
		<clipPath id="SVGID_17_">
			<use xlink:href="#SVGID_16_"  overflow="visible"/>
		</clipPath>
		
			<linearGradient id="SVGID_18_" gradientUnits="userSpaceOnUse" x1="-109.5195" y1="759.4741" x2="-108.5195" y2="759.4741" gradientTransform="matrix(0 32.5429 32.5429 0 -24596.2383 3683.252)">
			<stop  offset="0" style="stop-color:#3F4143"/>
			<stop  offset="1" style="stop-color:#000000"/>
		</linearGradient>
		<rect x="89.573" y="119.172" clip-path="url(#SVGID_17_)" fill="url(#SVGID_18_)" width="59.42" height="32.543"/>
	</g>
	<g>
		<defs>
			<path id="SVGID_19_" d="M39.208,124.733c-1.282,0.162-3.073,0.376-5.245,0.6c-2.174,0.224-4.73,0.456-7.541,0.66
				c-2.813,0.206-5.881,0.379-9.073,0.482c-0.946,0.031-1.899,0.055-2.857,0.071c-0.957,0.016-1.919,0.024-2.879,0.023
				c-0.959,0-1.922-0.009-2.877-0.03c-0.476-0.009-1.523,0.381-2.574,0.768c-1.064,0.395-2.131,0.788-2.605,0.768l48.403,27.664
				c0.757,0.035,1.521,0.062,2.288,0.08c0.766,0.017,1.536,0.025,2.304,0.026c0.768,0.003,1.539-0.001,2.305-0.014
				c0.765-0.012,1.526-0.031,2.281-0.055c2.551-0.083,4.996-0.226,7.236-0.392c2.239-0.169,4.272-0.36,6-0.547
				c1.728-0.183,3.15-0.36,4.167-0.494c1.018-0.134,1.633-0.226,1.744-0.243l-39.124-29.359l0.245-0.301
				C41.264,124.46,40.489,124.571,39.208,124.733"/>
		</defs>
		<clipPath id="SVGID_20_">
			<use xlink:href="#SVGID_19_"  overflow="visible"/>
		</clipPath>
		
			<linearGradient id="SVGID_21_" gradientUnits="userSpaceOnUse" x1="-109.4702" y1="759.3755" x2="-108.4702" y2="759.3755" gradientTransform="matrix(0 31.4071 31.4071 0 -23807.9043 3562.5664)">
			<stop  offset="0" style="stop-color:#3F4143"/>
			<stop  offset="1" style="stop-color:#000000"/>
		</linearGradient>
		<rect x="3.557" y="124.44" clip-path="url(#SVGID_20_)" fill="url(#SVGID_21_)" width="76.728" height="31.408"/>
		
			<linearGradient id="SVGID_22_" gradientUnits="userSpaceOnUse" x1="-109.4702" y1="756.1392" x2="-108.4702" y2="756.1392" gradientTransform="matrix(0 31.4071 31.4071 0 -23807.9043 3562.5664)">
			<stop  offset="0" style="stop-color:#3F4143"/>
			<stop  offset="1" style="stop-color:#000000"/>
		</linearGradient>
		<rect x="-98.11" y="124.44" clip-path="url(#SVGID_20_)" fill="url(#SVGID_22_)" width="76.728" height="31.408"/>
	</g>
	<g>
		<defs>
			<path id="SVGID_23_" d="M347.607,61.031c0.752,6.151,1.397,11.78,1.945,16.796c0.557,5.095,1.008,9.533,1.368,13.225
				c0.363,3.73,0.63,6.676,0.809,8.748c0.182,2.085,0.275,3.275,0.29,3.492l17.922-27.502c-0.027-0.262-0.183-1.685-0.479-4.175
				c-0.293-2.472-0.721-5.981-1.295-10.41c-0.567-4.371-1.272-9.612-2.123-15.606c-0.836-5.879-2.411-12.879-3.527-20.028
				L347.607,61.031z"/>
		</defs>
		<clipPath id="SVGID_24_">
			<use xlink:href="#SVGID_23_"  overflow="visible"/>
		</clipPath>
		
			<linearGradient id="SVGID_25_" gradientUnits="userSpaceOnUse" x1="-114.8999" y1="760.1763" x2="-113.8999" y2="760.1763" gradientTransform="matrix(22.3336 0 0 -22.3336 2913.7329 17041.9004)">
			<stop  offset="0" style="stop-color:#000000"/>
			<stop  offset="1" style="stop-color:#404244"/>
		</linearGradient>
		<rect x="347.607" y="25.572" clip-path="url(#SVGID_24_)" fill="url(#SVGID_25_)" width="22.333" height="77.72"/>
	</g>
	<g>
		<defs>
			<path id="SVGID_26_" d="M352.019,103.292c3.007,0.13,5.805,0.282,8.316,0.438c2.521,0.154,4.756,0.314,6.629,0.459
				c1.878,0.142,3.391,0.271,4.465,0.369c1.076,0.096,1.707,0.16,1.824,0.171l24.368-26.482l-0.885-1.009
				c-0.146-0.011-0.947-0.079-2.308-0.181c-1.358-0.101-3.272-0.239-5.645-0.386c-2.368-0.149-5.189-0.312-8.368-0.466
				c-3.169-0.154-6.693-0.299-10.476-0.415L352.019,103.292z"/>
		</defs>
		<clipPath id="SVGID_27_">
			<use xlink:href="#SVGID_26_"  overflow="visible"/>
		</clipPath>
		
			<linearGradient id="SVGID_28_" gradientUnits="userSpaceOnUse" x1="-109.1147" y1="759.8198" x2="-108.1147" y2="759.8198" gradientTransform="matrix(-5.8039 32.9154 32.9154 5.8039 -25265.3789 -744.481)">
			<stop  offset="0" style="stop-color:#3F4143"/>
			<stop  offset="1" style="stop-color:#000000"/>
		</linearGradient>
		<polygon clip-path="url(#SVGID_27_)" fill="url(#SVGID_28_)" points="402.57,76.663 396.247,112.528 347.071,103.857 
			353.394,67.992 		"/>
	</g>
	<g>
		<defs>
			<path id="SVGID_29_" d="M349.65,111.836c-0.293,0.431-0.55,0.887-0.766,1.366c-0.218,0.48-0.395,0.983-0.532,1.506
				c-0.14,0.527-0.24,1.072-0.302,1.636c-0.062,0.565-0.084,1.148-0.068,1.75c0.052,1.955,0.463,3.759,1.203,5.38
				c0.742,1.63,1.819,3.077,3.2,4.307c1.385,1.235,3.078,2.25,5.044,3.014c1.974,0.767,4.221,1.279,6.708,1.506
				c0.523,0.046,1.039,0.075,1.546,0.084c0.508,0.008,1.008,0,1.498-0.029c0.491-0.028,0.972-0.075,1.44-0.141
				c0.472-0.067,0.93-0.152,1.378-0.254c0.521-0.121,1.029-0.267,1.518-0.435c0.487-0.171,0.955-0.365,1.403-0.584
				c0.446-0.22,0.874-0.464,1.275-0.731c0.402-0.266,0.782-0.559,1.136-0.871l25.789-21.646l-0.68-0.638
				c-0.436,0.388-0.907,0.747-1.409,1.078c-0.5,0.332-1.032,0.633-1.595,0.906c-0.559,0.274-1.148,0.516-1.763,0.73
				s-1.252,0.396-1.915,0.551c-0.566,0.129-1.148,0.237-1.745,0.321c-0.595,0.087-1.207,0.15-1.829,0.188
				c-0.624,0.041-1.261,0.057-1.906,0.051c-0.646-0.005-1.306-0.036-1.971-0.089c-3.175-0.252-6.054-0.858-8.59-1.776
				c-2.523-0.914-4.706-2.139-6.507-3.629c-1.79-1.485-3.202-3.235-4.194-5.21c-0.987-1.962-1.562-4.146-1.689-6.513
				c-0.038-0.727-0.028-1.434,0.034-2.117c0.058-0.685,0.168-1.346,0.327-1.981c0.159-0.634,0.365-1.243,0.623-1.824
				c0.259-0.581,0.566-1.134,0.922-1.656L349.65,111.836z"/>
		</defs>
		<clipPath id="SVGID_30_">
			<use xlink:href="#SVGID_29_"  overflow="visible"/>
		</clipPath>
		
			<linearGradient id="SVGID_31_" gradientUnits="userSpaceOnUse" x1="-109.6113" y1="760.4712" x2="-108.6113" y2="760.4712" gradientTransform="matrix(-8.0143 45.4512 45.4512 8.0143 -35064.4805 -1024.6343)">
			<stop  offset="0" style="stop-color:#3F4143"/>
			<stop  offset="1" style="stop-color:#000000"/>
		</linearGradient>
		<polygon clip-path="url(#SVGID_30_)" fill="url(#SVGID_31_)" points="409.04,87.483 399.517,141.483 340.047,130.997 
			349.569,76.997 		"/>
	</g>
	<g>
		<defs>
			<path id="SVGID_32_" d="M194.948,23.915c-0.004,0.099-0.034,0.656-0.077,1.639c-0.044,0.987-0.104,2.407-0.164,4.236
				c-0.059,1.838-0.123,4.09-0.18,6.742c-0.058,2.667-0.104,5.743-0.137,9.201l10.833,30.968c-0.013-2.899-0.008-5.481,0.009-7.724
				c0.017-2.231,0.045-4.13,0.073-5.68c0.028-1.545,0.06-2.742,0.083-3.578c0.026-0.832,0.044-1.3,0.047-1.387l-8.649-36.092
				L194.948,23.915z"/>
		</defs>
		<clipPath id="SVGID_33_">
			<use xlink:href="#SVGID_32_"  overflow="visible"/>
		</clipPath>
		
			<linearGradient id="SVGID_34_" gradientUnits="userSpaceOnUse" x1="-118.9727" y1="758.1001" x2="-117.9727" y2="758.1001" gradientTransform="matrix(11.0449 0 0 -11.0449 1508.4314 8422.6094)">
			<stop  offset="0" style="stop-color:#231F20"/>
			<stop  offset="0.0491" style="stop-color:#231F20"/>
			<stop  offset="1" style="stop-color:#000000"/>
		</linearGradient>
		<rect x="194.391" y="22.24" clip-path="url(#SVGID_33_)" fill="url(#SVGID_34_)" width="11.044" height="54.461"/>
	</g>
	<g>
		<defs>
			<path id="SVGID_35_" d="M191.824,45.843c-1.521,0.066-3.676,0.165-6.378,0.294c-2.699,0.13-3.229,0.476-6.93,0.669
				c-3.696,0.194-7.85,0.421-12.368,0.682l16.779,30.563c3.653-0.197,7.008-0.365,9.997-0.511c2.989-0.145,2.896-0.449,5.075-0.543
				c2.184-0.097,3.923-0.169,5.151-0.216c1.228-0.048,1.943-0.073,2.072-0.08L194.39,45.732
				C194.23,45.741,193.344,45.776,191.824,45.843"/>
		</defs>
		<clipPath id="SVGID_36_">
			<use xlink:href="#SVGID_35_"  overflow="visible"/>
		</clipPath>
		
			<linearGradient id="SVGID_37_" gradientUnits="userSpaceOnUse" x1="-109.5103" y1="759.4556" x2="-108.5103" y2="759.4556" gradientTransform="matrix(0 32.3181 32.3181 0 -24358.4883 3584.895)">
			<stop  offset="0" style="stop-color:#3F4143"/>
			<stop  offset="1" style="stop-color:#000000"/>
		</linearGradient>
		<rect x="166.149" y="45.733" clip-path="url(#SVGID_36_)" fill="url(#SVGID_37_)" width="39.074" height="32.318"/>
	</g>
	<g>
		<g>
			<defs>
				<rect id="SVGID_38_" x="165.427" y="47.487" width="17.5" height="38.563"/>
			</defs>
			<clipPath id="SVGID_39_">
				<use xlink:href="#SVGID_38_"  overflow="visible"/>
			</clipPath>
			<g clip-path="url(#SVGID_39_)">
				<defs>
					<path id="SVGID_40_" d="M165.788,51.539c-0.097,1.177-0.167,2.165-0.22,2.969c-0.053,0.803-0.088,1.419-0.108,1.847
						c-0.022,0.426-0.03,0.662-0.032,0.705l17.082,28.991c-0.001-0.037,0.003-0.233,0.012-0.587
						c0.012-0.357,0.028-0.871,0.057-1.543c0.03-0.672,0.068-1.498,0.127-2.478c0.057-0.98,0.131-2.108,0.223-3.392L166.15,47.487
						C166.001,49.018,165.882,50.372,165.788,51.539"/>
				</defs>
				<clipPath id="SVGID_41_">
					<use xlink:href="#SVGID_40_"  overflow="visible"/>
				</clipPath>
				
					<linearGradient id="SVGID_42_" gradientUnits="userSpaceOnUse" x1="-116" y1="759.6157" x2="-115" y2="759.6157" gradientTransform="matrix(17.5002 0 0 -17.5002 2195.4521 13360.2246)">
					<stop  offset="0" style="stop-color:#231F20"/>
					<stop  offset="0.0491" style="stop-color:#231F20"/>
					<stop  offset="1" style="stop-color:#000920"/>
				</linearGradient>
				<rect x="165.427" y="47.488" clip-path="url(#SVGID_41_)" fill="url(#SVGID_42_)" width="17.5" height="38.562"/>
			</g>
			<g clip-path="url(#SVGID_39_)">
				<defs>
					<path id="SVGID_43_" d="M166.15,47.487c-0.148,1.53-0.268,2.884-0.362,4.051c-0.097,1.177-0.167,2.165-0.22,2.969
						c-0.053,0.803-0.088,1.419-0.108,1.847c-0.022,0.426-0.03,0.662-0.032,0.705l17.082,28.991
						c-0.001-0.037,0.003-0.233,0.012-0.587c0.012-0.357,0.028-0.871,0.057-1.543c0.03-0.672,0.068-1.498,0.127-2.478
						c0.057-0.98,0.131-2.108,0.223-3.392L166.15,47.487z"/>
				</defs>
				<clipPath id="SVGID_44_">
					<use xlink:href="#SVGID_43_"  overflow="visible"/>
				</clipPath>
				<g clip-path="url(#SVGID_44_)">
					<defs>
						<rect id="SVGID_45_" x="165.427" y="47.487" width="17.5" height="38.563"/>
					</defs>
					<clipPath id="SVGID_46_">
						<use xlink:href="#SVGID_45_"  overflow="visible"/>
					</clipPath>
					<g clip-path="url(#SVGID_46_)">
						<defs>
							<rect id="SVGID_47_" x="165.427" y="47.487" width="17.5" height="38.563"/>
						</defs>
						<clipPath id="SVGID_48_">
							<use xlink:href="#SVGID_47_"  overflow="visible"/>
						</clipPath>
						<g clip-path="url(#SVGID_48_)">
							<defs>
								<rect id="SVGID_49_" x="165.427" y="47.487" width="17.5" height="38.563"/>
							</defs>
							<clipPath id="SVGID_50_">
								<use xlink:href="#SVGID_49_"  overflow="visible"/>
							</clipPath>
							<g clip-path="url(#SVGID_50_)">
								<defs>
									<path id="SVGID_51_" d="M165.788,51.539c-0.097,1.177-0.167,2.165-0.22,2.969c-0.053,0.803-0.088,1.419-0.108,1.847
										c-0.022,0.426-0.03,0.662-0.032,0.705l17.082,28.991c-0.001-0.037,0.003-0.233,0.012-0.587
										c0.012-0.357,0.028-0.871,0.057-1.543c0.03-0.672,0.068-1.498,0.127-2.478c0.057-0.98,0.131-2.108,0.223-3.392
										L166.15,47.487C166.001,49.018,165.882,50.372,165.788,51.539"/>
								</defs>
								<clipPath id="SVGID_52_">
									<use xlink:href="#SVGID_51_"  overflow="visible"/>
								</clipPath>
								<defs>
									<filter id="Adobe_OpacityMaskFilter" filterUnits="userSpaceOnUse" x="165.427" y="47.488" width="17.5" height="38.562">
										<feColorMatrix  type="matrix" values="1 0 0 0 0  0 1 0 0 0  0 0 1 0 0  0 0 0 1 0"/>
									</filter>
								</defs>
								<mask maskUnits="userSpaceOnUse" x="165.427" y="47.488" width="17.5" height="38.562" id="SVGID_53_">
									<g filter="url(#Adobe_OpacityMaskFilter)">
										
											<linearGradient id="SVGID_54_" gradientUnits="userSpaceOnUse" x1="-116" y1="759.6157" x2="-115" y2="759.6157" gradientTransform="matrix(17.5002 0 0 -17.5002 2195.4521 13360.2246)">
											<stop  offset="0" style="stop-color:#000000"/>
											<stop  offset="1" style="stop-color:#808080"/>
										</linearGradient>
										<rect x="165.427" y="47.488" clip-path="url(#SVGID_52_)" fill="url(#SVGID_54_)" width="17.5" height="38.562"/>
									</g>
								</mask>
								
									<linearGradient id="SVGID_55_" gradientUnits="userSpaceOnUse" x1="-116" y1="759.6157" x2="-115" y2="759.6157" gradientTransform="matrix(17.5002 0 0 -17.5002 2195.4521 13360.2246)">
									<stop  offset="0" style="stop-color:#FFFFFF"/>
									<stop  offset="1" style="stop-color:#FFFFFF"/>
								</linearGradient>
								
									<rect x="165.427" y="47.488" clip-path="url(#SVGID_52_)" mask="url(#SVGID_53_)" fill="url(#SVGID_55_)" width="17.5" height="38.562"/>
							</g>
						</g>
					</g>
				</g>
			</g>
		</g>
	</g>
	<g>
		<defs>
			<path id="SVGID_56_" d="M190.554,56.185c-0.007,0.091-0.048,0.59-0.107,1.506c-0.062,0.918-0.143,2.254-0.23,4.019
				c-0.087,1.776-0.181,3.983-0.27,6.639c-0.087,2.675,0.232,5.666,0.171,9.277l12.243,25.702c0.005-2.981,0.031-5.572,0.069-7.787
				c0.039-2.203,0.088-4.036,0.138-5.51c0.047-1.467,0.097-2.579,0.135-3.343c0.037-0.762,0.063-1.179,0.068-1.254l-10.317-30.805
				L190.554,56.185z"/>
		</defs>
		<clipPath id="SVGID_57_">
			<use xlink:href="#SVGID_56_"  overflow="visible"/>
		</clipPath>
		
			<linearGradient id="SVGID_58_" gradientUnits="userSpaceOnUse" x1="-117.8462" y1="758.6743" x2="-116.8462" y2="758.6743" gradientTransform="matrix(12.8398 0 0 -12.8398 1703.0469 9820.1641)">
			<stop  offset="0" style="stop-color:#231F20"/>
			<stop  offset="0.0491" style="stop-color:#231F20"/>
			<stop  offset="1" style="stop-color:#000920"/>
		</linearGradient>
		<rect x="189.86" y="54.629" clip-path="url(#SVGID_57_)" fill="url(#SVGID_58_)" width="12.911" height="48.698"/>
	</g>
	<g>
		<defs>
			<path id="SVGID_59_" d="M188.049,77.788c-1.026,0.016-2.543,0.04-4.597,0.079c-2.053,0.039-4.642,0.09-7.811,0.164
				c-3.169,0.073-6.914,0.164-11.289,0.28l17.654,25.369c3.512-0.08,6.521-0.141,9.062-0.188c2.545-0.05,4.619-0.084,6.267-0.107
				c1.646-0.022,2.863-0.04,3.687-0.045c0.826-0.009,1.259-0.013,1.338-0.012L190.256,77.81l-0.541-0.042
				C189.618,77.769,189.081,77.772,188.049,77.788"/>
		</defs>
		<clipPath id="SVGID_60_">
			<use xlink:href="#SVGID_59_"  overflow="visible"/>
		</clipPath>
		
			<linearGradient id="SVGID_61_" gradientUnits="userSpaceOnUse" x1="-109.1621" y1="758.7749" x2="-108.1621" y2="758.7749" gradientTransform="matrix(0 25.9115 25.9115 0 -19477.6797 2906.3267)">
			<stop  offset="0" style="stop-color:#3F4143"/>
			<stop  offset="1" style="stop-color:#000000"/>
		</linearGradient>
		<rect x="164.353" y="77.768" clip-path="url(#SVGID_60_)" fill="url(#SVGID_61_)" width="38.007" height="25.912"/>
	</g>
	<g>
		<defs>
			<path id="SVGID_62_" d="M164.155,82.562c-0.047,1.222-0.077,2.245-0.097,3.069c-0.02,0.828-0.026,1.455-0.03,1.888
				c-0.002,0.19-0.003,0.342-0.003,0.457v0.023c0,0.132,0.001,0.209,0.002,0.232l17.888,23.615c0-0.034-0.006-0.226-0.01-0.584
				c-0.004-0.293-0.009-0.697-0.009-1.214c0-0.107,0-0.219,0.002-0.336c0-0.679,0.008-1.52,0.025-2.528
				c0.015-1.004,0.043-2.172,0.084-3.504l-17.654-25.369C164.266,79.927,164.203,81.343,164.155,82.562"/>
		</defs>
		<clipPath id="SVGID_63_">
			<use xlink:href="#SVGID_62_"  overflow="visible"/>
		</clipPath>
		
			<linearGradient id="SVGID_64_" gradientUnits="userSpaceOnUse" x1="-115.8628" y1="759.6851" x2="-114.8628" y2="759.6851" gradientTransform="matrix(17.9828 0 0 -17.9828 2247.5723 13756.3379)">
			<stop  offset="0" style="stop-color:#231F20"/>
			<stop  offset="0.0491" style="stop-color:#231F20"/>
			<stop  offset="1" style="stop-color:#000000"/>
		</linearGradient>
		<rect x="164.025" y="78.311" clip-path="url(#SVGID_63_)" fill="url(#SVGID_64_)" width="17.982" height="33.535"/>
	</g>
	<g>
		<defs>
			<path id="SVGID_65_" d="M189.321,111.487c-3.292,0.192-7.906,0.439-13.565,0.691c-5.65,0.256-12.337,0.515-19.777,0.732
				c-7.423,0.216-16.287,0.829-24.919,0.909l25.548,18.476c6.886-0.04,13.4-0.159,19.316-0.315
				c5.927-0.155,11.248-0.347,15.745-0.538c4.501-0.191,8.171-0.379,10.786-0.525c2.617-0.144,4.18-0.246,4.463-0.265
				l-11.982-19.511C194.579,111.167,192.615,111.298,189.321,111.487"/>
		</defs>
		<clipPath id="SVGID_66_">
			<use xlink:href="#SVGID_65_"  overflow="visible"/>
		</clipPath>
		
			<linearGradient id="SVGID_67_" gradientUnits="userSpaceOnUse" x1="-108.7681" y1="758.0024" x2="-107.7686" y2="758.0024" gradientTransform="matrix(0 21.1545 21.1545 0 -15866.1484 2412.0854)">
			<stop  offset="0" style="stop-color:#3F4143"/>
			<stop  offset="1" style="stop-color:#000000"/>
		</linearGradient>
		<rect x="131.059" y="111.142" clip-path="url(#SVGID_66_)" fill="url(#SVGID_67_)" width="75.858" height="21.154"/>
	</g>
	<g>
		<defs>
			<path id="SVGID_68_" d="M195.783,88.337c-0.038,1.008-0.095,2.485-0.167,4.463c-0.074,1.983-0.165,4.473-0.278,7.5
				c-0.112,3.049-0.247,6.649-0.402,10.841l11.982,19.511c0.077-3.404,0.143-6.335,0.201-8.82c0.056-2.472,0.102-4.506,0.14-6.13
				c0.037-1.618,0.063-2.83,0.081-3.656c0.021-0.826,0.03-1.269,0.031-1.349l-10.63-24.782
				C196.737,86.013,195.82,87.333,195.783,88.337"/>
		</defs>
		<clipPath id="SVGID_69_">
			<use xlink:href="#SVGID_68_"  overflow="visible"/>
		</clipPath>
		
			<linearGradient id="SVGID_70_" gradientUnits="userSpaceOnUse" x1="-118.0718" y1="758.5591" x2="-117.0718" y2="758.5591" gradientTransform="matrix(12.4357 0 0 -12.4357 1663.2402 9541.5195)">
			<stop  offset="0" style="stop-color:#231F20"/>
			<stop  offset="0.0491" style="stop-color:#231F20"/>
			<stop  offset="1" style="stop-color:#000920"/>
		</linearGradient>
		<rect x="194.935" y="85.916" clip-path="url(#SVGID_69_)" fill="url(#SVGID_70_)" width="12.436" height="44.736"/>
	</g>
	<g>
		<defs>
			<path id="SVGID_71_" d="M279.663,58.034c-0.62,3.342-1.236,6.643-1.843,9.89c-0.618,3.286-1.229,6.513-1.827,9.678
				c-0.606,3.197-1.202,6.322-1.783,9.367c-0.588,3.076-1.16,6.067-1.721,8.958c-0.521,2.702-1.025,5.317-1.516,7.838
				c-0.491,2.537-0.967,4.975-1.42,7.302c-0.458,2.339-0.895,4.568-1.306,6.669c-0.417,2.114-0.809,4.102-1.17,5.947
				c-0.488,2.458-2.812,20.039-2.838,20.187l15.332-32.122l-0.29-4.509c0.017-0.087,0.104-0.561,0.264-1.41
				c0.159-0.843,0.386-2.063,0.681-3.644c0.293-1.569,0.648-3.495,1.066-5.755c0.415-2.247,0.89-4.826,1.419-7.711
				c0.397-2.166,0.82-4.491,1.271-6.965c0.445-2.454,0.919-5.052,1.412-7.78c0.487-2.7,0.995-5.529,1.524-8.467
				c0.521-2.91,1.061-5.929,1.617-9.04c0.59-3.322,1.197-6.749,1.817-10.268c0.612-3.475,1.238-7.035,1.872-10.666
				c0.626-3.583,1.26-7.234,1.899-10.941c0.631-3.653-0.163-8.929,0.476-12.673L279.663,58.034z"/>
		</defs>
		<clipPath id="SVGID_72_">
			<use xlink:href="#SVGID_71_"  overflow="visible"/>
		</clipPath>
		
			<linearGradient id="SVGID_73_" gradientUnits="userSpaceOnUse" x1="-113.8457" y1="760.7144" x2="-112.8457" y2="760.7144" gradientTransform="matrix(30.3626 0 0 -30.3626 3720.8833 23175.125)">
			<stop  offset="0" style="stop-color:#000000"/>
			<stop  offset="1" style="stop-color:#545658"/>
		</linearGradient>
		<rect x="264.24" y="11.918" clip-path="url(#SVGID_72_)" fill="url(#SVGID_73_)" width="30.517" height="131.951"/>
	</g>
	<g>
		<defs>
			<polygon id="SVGID_74_" points="298.749,75.728 306.398,110.193 330.622,73.366 319.773,33.701 			"/>
		</defs>
		<clipPath id="SVGID_75_">
			<use xlink:href="#SVGID_74_"  overflow="visible"/>
		</clipPath>
		
			<linearGradient id="SVGID_76_" gradientUnits="userSpaceOnUse" x1="-113.7065" y1="760.7847" x2="-112.7065" y2="760.7847" gradientTransform="matrix(31.873 0 0 -31.873 3922.9185 24320.4473)">
			<stop  offset="0" style="stop-color:#000000"/>
			<stop  offset="1" style="stop-color:#3B3D3F"/>
		</linearGradient>
		<rect x="298.749" y="33.701" clip-path="url(#SVGID_75_)" fill="url(#SVGID_76_)" width="31.872" height="76.493"/>
	</g>
	<g>
		<defs>
			<path id="SVGID_77_" d="M293.832,130.327c1.829,0.093,3.553,0.192,5.173,0.29c1.62,0.094,3.139,0.191,4.558,0.277
				c1.42,0.093,2.738,0.176,3.966,0.249c1.228,0.074,2.358,0.14,3.398,0.193l26.275-33.162c-1.286-0.073-2.687-0.162-4.204-0.263
				c-1.52-0.099-3.153-0.211-4.91-0.33s-3.635-0.246-5.643-0.374c-2.006-0.129-4.144-0.26-6.408-0.391L293.832,130.327z"/>
		</defs>
		<clipPath id="SVGID_78_">
			<use xlink:href="#SVGID_77_"  overflow="visible"/>
		</clipPath>
		
			<linearGradient id="SVGID_79_" gradientUnits="userSpaceOnUse" x1="-109.3799" y1="760.1743" x2="-108.3799" y2="760.1743" gradientTransform="matrix(-6.8064 38.6009 38.6009 6.8064 -29768.9902 -856.939)">
			<stop  offset="0" style="stop-color:#3F4143"/>
			<stop  offset="1" style="stop-color:#000000"/>
		</linearGradient>
		<polygon clip-path="url(#SVGID_78_)" fill="url(#SVGID_79_)" points="343.105,97.856 335.894,138.752 287.928,130.294 
			295.139,89.399 		"/>
	</g>
	<g>
		<defs>
			<path id="SVGID_80_" d="M316.253,154.214c3.879,0.12,30.676,1.307,30.862,1.32l37.524-27.985l-2.356-1.794
				c-0.233-0.015-1.517-0.107-3.611-0.245c-2.091-0.139-4.995-0.326-8.472-0.531c-3.479-0.21-21.431-1.117-26.247-1.292
				L316.253,154.214z"/>
		</defs>
		<clipPath id="SVGID_81_">
			<use xlink:href="#SVGID_80_"  overflow="visible"/>
		</clipPath>
		
			<linearGradient id="SVGID_82_" gradientUnits="userSpaceOnUse" x1="-109.3916" y1="760.1841" x2="-108.3912" y2="760.1841" gradientTransform="matrix(-6.8579 38.893 38.893 6.8579 -29962.2539 -838.0034)">
			<stop  offset="0" style="stop-color:#3F4143"/>
			<stop  offset="1" style="stop-color:#000000"/>
		</linearGradient>
		<polygon clip-path="url(#SVGID_81_)" fill="url(#SVGID_82_)" points="390.086,124.648 382.579,167.229 310.807,154.574 
			318.316,111.993 		"/>
	</g>
	<g>
		<defs>
			<path id="SVGID_83_" d="M310.926,131.335c0.554,2.519,2.833,13.387,2.956,14.017c0.125,0.633,0.188,0.97,2.371,8.862
				l27.781-30.327l-2.171-7.831c-0.017-0.073-0.112-0.476-0.3-1.232c-0.186-0.752-0.462-1.855-0.843-3.334
				c-0.375-1.473-0.85-3.311-1.438-5.536c-0.582-2.213-1.273-4.802-2.082-7.781L310.926,131.335z"/>
		</defs>
		<clipPath id="SVGID_84_">
			<use xlink:href="#SVGID_83_"  overflow="visible"/>
		</clipPath>
		
			<linearGradient id="SVGID_85_" gradientUnits="userSpaceOnUse" x1="-113.6025" y1="760.8384" x2="-112.6025" y2="760.8384" gradientTransform="matrix(33.109 0 0 -33.109 4072.187 25316.791)">
			<stop  offset="0" style="stop-color:#000000"/>
			<stop  offset="1" style="stop-color:#404244"/>
		</linearGradient>
		<rect x="310.926" y="98.174" clip-path="url(#SVGID_84_)" fill="url(#SVGID_85_)" width="33.108" height="56.04"/>
	</g>
	<g>
		<defs>
			<path id="SVGID_86_" d="M285.644,112.433c-2.523,0.038-5.1,0.077-7.412-0.011l-14.102,31.481
				c3.887,0.127,7.723,0.334,11.143,0.502c3.413,0.169,6.521,0.346,9.161,0.51c2.638,0.163,4.814,0.314,6.373,0.426
				c1.561,0.112,2.502,0.187,2.676,0.198l23.071-30.699l-0.581-0.854c-0.211-0.018-1.383-0.114-3.323-0.261
				c-1.94-0.149-4.647-0.347-7.934-0.566c-3.291-0.219-7.152-0.458-11.404-0.689c-1.095-0.059-2.307-0.079-3.585-0.079
				C288.419,112.391,287.04,112.412,285.644,112.433"/>
		</defs>
		<clipPath id="SVGID_87_">
			<use xlink:href="#SVGID_86_"  overflow="visible"/>
		</clipPath>
		
			<linearGradient id="SVGID_88_" gradientUnits="userSpaceOnUse" x1="-109.3506" y1="760.1343" x2="-108.3506" y2="760.1343" gradientTransform="matrix(-6.6795 37.8812 37.8812 6.6795 -29231.498 -824.9077)">
			<stop  offset="0" style="stop-color:#3F4143"/>
			<stop  offset="1" style="stop-color:#000000"/>
		</linearGradient>
		<polygon clip-path="url(#SVGID_87_)" fill="url(#SVGID_88_)" points="322.223,113.39 314.974,154.503 258.461,144.539 
			265.711,103.425 		"/>
	</g>
	<g>
		<defs>
			<path id="SVGID_89_" d="M263.593,58.287c-2.974,0-6.879,0.724-10.042,0.752l-3.99,27.276c2.557-0.027,5.107-0.03,7.501-0.026
				c2.397,0.006,4.641,0.024,6.577,0.044c1.939,0.021,3.574,0.045,4.759,0.064c1.184,0.021,1.916,0.035,2.051,0.037l10.785-27.129
				l-0.904-0.833c-0.165-0.004-1.08-0.024-2.557-0.046c-1.475-0.026-3.513-0.056-5.928-0.082c-2.415-0.026-5.206-0.05-8.19-0.057
				H263.593z"/>
		</defs>
		<clipPath id="SVGID_90_">
			<use xlink:href="#SVGID_89_"  overflow="visible"/>
		</clipPath>
		
			<linearGradient id="SVGID_91_" gradientUnits="userSpaceOnUse" x1="-109.3018" y1="759.0474" x2="-108.3018" y2="759.0474" gradientTransform="matrix(0 28.147 28.147 0 -21099.4844 3134.793)">
			<stop  offset="0" style="stop-color:#535557"/>
			<stop  offset="1" style="stop-color:#000000"/>
		</linearGradient>
		<rect x="249.562" y="58.287" clip-path="url(#SVGID_90_)" fill="url(#SVGID_91_)" width="31.672" height="28.146"/>
	</g>
	<g>
		<defs>
			<path id="SVGID_92_" d="M232.28,95.816c0.001-0.04,0.002-0.081,0.002-0.119L232.28,95.816z M232.282,95.697L232.282,95.697
				 M232.282,95.697v-0.003v-0.005C232.282,95.692,232.282,95.694,232.282,95.697 M232.284,95.608l0.003-0.148
				C232.286,95.51,232.285,95.56,232.284,95.608 M244.078,43.588c-0.068,0.002-0.135,0.006-0.203,0.01
				c-0.399,0.025-0.786,0.07-1.161,0.137c-0.375,0.068-0.739,0.158-1.095,0.271c-0.353,0.114-0.695,0.25-1.029,0.411
				c-0.156,0.075-0.31,0.156-0.461,0.241c-0.001,0-0.001,0.001-0.002,0.001c-0.152,0.088-0.301,0.18-0.447,0.276
				c-0.145,0.097-0.287,0.199-0.427,0.304c-0.005,0.004-0.01,0.008-0.016,0.012c-0.141,0.109-0.277,0.221-0.411,0.34
				c-0.18,0.157-0.355,0.322-0.525,0.502c-0.172,0.176-0.336,0.36-0.501,0.56c-0.028,0.034-0.056,0.067-0.085,0.102
				c-0.188,0.236-0.373,0.487-0.551,0.751c-0.069,0.103-0.137,0.208-0.204,0.314c-0.139,0.221-0.275,0.451-0.407,0.692
				c-0.106,0.195-0.213,0.396-0.315,0.605c-0.294,0.593-0.569,1.24-0.826,1.942c-0.507,1.388-0.942,2.995-1.307,4.842
				c-0.169,0.856-0.322,1.764-0.462,2.727c-0.001,0.009-0.003,0.019-0.004,0.029c-0.001,0.007-0.002,0.016-0.003,0.024
				c-0.099,0.693-0.19,1.413-0.273,2.161c-0.028,0.241-0.055,0.485-0.079,0.732c-0.188,1.823-0.329,3.81-0.43,5.973
				c-0.008,0.189-0.015,0.378-0.021,0.562c-0.004,0.185-0.011,0.37-0.016,0.552c-0.006,0.184-0.01,0.366-0.017,0.55
				c-0.003,0.181-0.007,0.359-0.01,0.54l-0.502,25.668c0-0.009,0-0.017,0-0.026s0-0.018,0.001-0.027
				c0.004-0.15,0.009-0.302,0.012-0.453c0.006-0.151,0.008-0.304,0.014-0.458c0.006-0.155,0.011-0.309,0.018-0.465
				c0.174-3.866,0.511-7.059,1.01-9.671c0.147-0.764,0.307-1.479,0.482-2.146c0.166-0.642,0.347-1.243,0.54-1.8
				c0.319-0.921,0.676-1.729,1.068-2.432c0.002-0.004,0.004-0.008,0.006-0.011c0.008-0.013,0.015-0.025,0.021-0.036
				c0.066-0.118,0.132-0.231,0.201-0.344c0.002-0.004,0.004-0.006,0.006-0.01c0.005-0.007,0.009-0.014,0.014-0.021
				c0.012-0.019,0.022-0.038,0.034-0.056c0,0,0-0.001,0.001-0.002c0.026-0.041,0.052-0.082,0.078-0.122
				c0.002-0.003,0.004-0.006,0.005-0.009c0.011-0.016,0.021-0.033,0.032-0.048c0.005-0.009,0.011-0.016,0.015-0.024
				c0.007-0.01,0.015-0.021,0.021-0.03c0.008-0.014,0.017-0.028,0.026-0.041c0.002-0.002,0.003-0.004,0.005-0.007
				c0.014-0.021,0.026-0.042,0.043-0.062c0-0.001,0-0.001,0.001-0.002c0-0.001,0.001-0.001,0.001-0.002
				c0.011-0.017,0.021-0.032,0.032-0.049c0.01-0.012,0.018-0.024,0.026-0.036c0.002-0.003,0.003-0.005,0.006-0.009
				c0.052-0.076,0.107-0.151,0.162-0.223c0.091-0.123,0.184-0.241,0.279-0.354c0.092-0.112,0.186-0.22,0.28-0.32
				c0.139-0.147,0.278-0.288,0.424-0.419c0.11-0.102,0.224-0.199,0.338-0.289c0.116-0.091,0.231-0.178,0.351-0.261
				c0.12-0.082,0.24-0.156,0.361-0.231c0.048-0.028,0.095-0.055,0.143-0.08c0.125-0.07,0.253-0.135,0.384-0.196
				c0.221-0.105,0.445-0.194,0.679-0.271c0.285-0.095,0.58-0.17,0.881-0.229c0.305-0.056,0.615-0.094,0.936-0.116
				c0.32-0.021,0.649-0.024,0.988-0.011c1.12,0.047,2.121,0.31,2.997,0.807c0.875,0.5,1.624,1.24,2.243,2.23
				c0.622,0.996,1.113,2.249,1.464,3.78c0.354,1.535,0.572,3.352,0.645,5.477l4.078-27.763c-0.105-2.552,0.282-4.972-0.171-6.814
				c-0.448-1.833-1.066-3.332-1.846-4.521c-0.776-1.186-1.711-2.069-2.801-2.668c-1.09-0.594-2.331-0.908-3.723-0.96
				c-0.177-0.008-0.351-0.011-0.522-0.011C244.409,43.578,244.241,43.581,244.078,43.588"/>
		</defs>
		<clipPath id="SVGID_93_">
			<use xlink:href="#SVGID_92_"  overflow="visible"/>
		</clipPath>
		
			<linearGradient id="SVGID_94_" gradientUnits="userSpaceOnUse" x1="-115.0698" y1="760.0903" x2="-114.0698" y2="760.0903" gradientTransform="matrix(21.4145 0 0 -21.4145 2696.4448 16346.6309)">
			<stop  offset="0" style="stop-color:#000000"/>
			<stop  offset="1" style="stop-color:#404244"/>
		</linearGradient>
		<rect x="232.28" y="43.578" clip-path="url(#SVGID_93_)" fill="url(#SVGID_94_)" width="21.641" height="52.238"/>
	</g>
	<g>
		<defs>
			<path id="SVGID_95_" d="M239.787,90.856c-0.007,2.756-0.037,5.145-0.078,7.182c-0.042,2.05-0.099,3.742-0.155,5.096
				c-0.054,1.357-0.11,2.375-0.153,3.067c-0.042,0.694-0.073,1.063-0.078,1.132l2.307-23.604c0.007-0.08,0.044-0.528,0.094-1.374
				c0.053-0.843,0.118-2.075,0.184-3.729c0.064-1.643,0.127-3.695,0.174-6.176c0.042-2.313,0.072-4.995,0.072-8.06
				c0-0.204,0-0.41-0.001-0.618L239.787,90.856z"/>
		</defs>
		<clipPath id="SVGID_96_">
			<use xlink:href="#SVGID_95_"  overflow="visible"/>
		</clipPath>
		
			<linearGradient id="SVGID_97_" gradientUnits="userSpaceOnUse" x1="-142.3579" y1="746.1704" x2="-141.3589" y2="746.1704" gradientTransform="matrix(2.8304 0 0 -2.8304 642.2545 2197.5203)">
			<stop  offset="0" style="stop-color:#8A8C8F"/>
			<stop  offset="0.3436" style="stop-color:#001622"/>
			<stop  offset="1" style="stop-color:#001622"/>
		</linearGradient>
		<rect x="239.322" y="63.772" clip-path="url(#SVGID_96_)" fill="url(#SVGID_97_)" width="2.829" height="43.561"/>
	</g>
	<g>
		<defs>
			<polygon id="SVGID_98_" points="239.322,107.333 251.965,107.421 257.483,83.85 241.628,83.729 			"/>
		</defs>
		<clipPath id="SVGID_99_">
			<use xlink:href="#SVGID_98_"  overflow="visible"/>
		</clipPath>
		
			<linearGradient id="SVGID_100_" gradientUnits="userSpaceOnUse" x1="-108.999" y1="758.4517" x2="-107.999" y2="758.4517" gradientTransform="matrix(0 23.6915 23.6915 0 -17720.4492 2666.0635)">
			<stop  offset="0" style="stop-color:#535557"/>
			<stop  offset="0.8773" style="stop-color:#000000"/>
			<stop  offset="1" style="stop-color:#000000"/>
		</linearGradient>
		<rect x="239.322" y="83.73" clip-path="url(#SVGID_99_)" fill="url(#SVGID_100_)" width="18.161" height="23.691"/>
	</g>
	<g>
		<defs>
			<path id="SVGID_101_" d="M251.834,108.018c0.007-0.03,0.013-0.061,0.021-0.094C251.847,107.956,251.84,107.986,251.834,108.018
				 M251.855,107.923c0.006-0.017,0.009-0.035,0.014-0.052c0.001-0.005,0.002-0.011,0.003-0.016
				C251.867,107.877,251.862,107.9,251.855,107.923 M251.965,107.421c-0.01,0.053-0.021,0.102-0.031,0.155
				c-0.011,0.047-0.021,0.1-0.033,0.146c-0.01,0.045-0.021,0.089-0.029,0.133c1.816-7.762,3.635-15.519,5.451-23.281
				c0.013-0.06,0.028-0.117,0.043-0.179c0.012-0.06,0.024-0.118,0.038-0.178c0.015-0.062,0.026-0.122,0.04-0.18
				c0.015-0.063,0.025-0.126,0.039-0.188L251.965,107.421z"/>
		</defs>
		<clipPath id="SVGID_102_">
			<use xlink:href="#SVGID_101_"  overflow="visible"/>
		</clipPath>
		<path clip-path="url(#SVGID_102_)" fill="#A0A1A1" d="M257.322,84.574l-5.488,23.443c0.012-0.046,0.022-0.096,0.034-0.146
			c0.011-0.048,0.022-0.098,0.033-0.149c0.012-0.046,0.022-0.098,0.033-0.146c0.01-0.053,0.021-0.101,0.031-0.154l5.518-23.572
			c-0.014,0.061-0.026,0.125-0.038,0.187c-0.015,0.058-0.026,0.119-0.042,0.18c-0.013,0.059-0.024,0.118-0.038,0.18
			C257.351,84.457,257.337,84.515,257.322,84.574"/>
	</g>
	<g>
		<defs>
			<path id="SVGID_103_" d="M205.173,110.913c1.1,3.917,2.737,7.302,4.848,10.185c2.125,2.907,4.727,5.298,7.728,7.217
				c3.018,1.927,6.431,3.371,10.173,4.382c3.748,1.009,7.815,1.582,12.127,1.764c3.636,0.149,6.938,0.052,9.921-0.341
				c2.978-0.393,5.633-1.072,7.983-2.085c2.35-1.007,4.388-2.343,6.14-4.042c1.747-1.692,3.205-3.741,4.396-6.182
				c3.308-6.785,6.613-13.567,9.924-20.353c-1.464,3-3.271,5.522-5.451,7.609c-2.19,2.095-4.75,3.742-7.702,4.99
				c-2.961,1.248-6.311,2.091-10.072,2.576c-3.768,0.483-7.94,0.603-12.541,0.415c-5.452-0.226-10.598-0.936-15.335-2.19
				c-4.728-1.248-9.035-3.037-12.838-5.419c-3.778-2.369-7.04-5.313-9.697-8.885c-2.635-3.541-4.663-7.688-6.009-12.476
				C200.903,95.689,203.038,103.301,205.173,110.913"/>
		</defs>
		<clipPath id="SVGID_104_">
			<use xlink:href="#SVGID_103_"  overflow="visible"/>
		</clipPath>
		<path clip-path="url(#SVGID_104_)" fill="#ADAEAE" d="M278.412,101.458l-9.924,20.354c-0.024,0.047-0.049,0.098-0.073,0.148
			c-0.024,0.048-0.048,0.095-0.073,0.143c-0.023,0.051-0.049,0.098-0.074,0.145c-0.024,0.051-0.049,0.097-0.073,0.145l9.855-20.22
			c0.034-0.06,0.063-0.119,0.093-0.177c0.03-0.058,0.061-0.119,0.092-0.178c0.028-0.06,0.059-0.12,0.089-0.181
			C278.353,101.578,278.381,101.518,278.412,101.458"/>
	</g>
	<g>
		<defs>
			<path id="SVGID_105_" d="M198.766,88.078l6.407,22.835c1.1,3.917,2.737,7.302,4.848,10.185c2.125,2.907,4.727,5.298,7.728,7.217
				c3.018,1.927,6.431,3.371,10.173,4.382c3.748,1.009,7.815,1.582,12.127,1.764c1.585,0.065,3.105,0.083,4.563,0.05
				c0.446-0.01,0.888-0.024,1.322-0.045c0.346-0.014,0.688-0.033,1.023-0.056c0.01,0,0.02-0.001,0.029-0.001
				c0.016-0.001,0.031-0.002,0.049-0.003c1.011-0.067,1.987-0.162,2.934-0.286c2.554-0.337,4.873-0.884,6.963-1.673
				c0.007-0.003,0.016-0.006,0.024-0.009c0.025-0.009,0.049-0.019,0.074-0.029c0.026-0.009,0.053-0.019,0.079-0.029
				c0.01-0.005,0.02-0.008,0.029-0.013c0.252-0.097,0.501-0.199,0.746-0.303c0.007-0.003,0.016-0.006,0.021-0.009
				c0.666-0.284,1.307-0.596,1.925-0.934c0.418-0.228,0.825-0.468,1.221-0.725c0.397-0.253,0.783-0.519,1.157-0.797
				c0.375-0.281,0.736-0.573,1.09-0.879c0.258-0.226,0.513-0.458,0.761-0.696c0.012-0.01,0.022-0.02,0.032-0.031
				c0.517-0.499,1.009-1.032,1.477-1.596l0.01-0.014c0.02-0.023,0.039-0.046,0.058-0.07c0.005-0.006,0.012-0.014,0.018-0.022
				c0.018-0.02,0.034-0.042,0.052-0.063c0.008-0.009,0.014-0.017,0.02-0.025c0.017-0.02,0.032-0.04,0.05-0.059
				c0.007-0.01,0.015-0.02,0.021-0.03c0.014-0.016,0.026-0.031,0.039-0.047c0.199-0.253,0.394-0.511,0.585-0.776
				c0.1-0.138,0.198-0.277,0.294-0.419c0.016-0.021,0.029-0.042,0.044-0.063c0.004-0.006,0.008-0.012,0.012-0.018
				c0.067-0.098,0.133-0.196,0.197-0.296c0.001-0.001,0.002-0.003,0.003-0.004c0.021-0.029,0.039-0.059,0.059-0.088
				c0.005-0.008,0.009-0.015,0.015-0.023c0.015-0.024,0.03-0.048,0.045-0.07c0.007-0.01,0.013-0.021,0.021-0.031
				c0.014-0.023,0.029-0.047,0.045-0.071c0.004-0.008,0.01-0.016,0.016-0.024c0.082-0.131,0.164-0.263,0.244-0.396
				c0.271-0.45,0.532-0.914,0.78-1.395l9.844-20.195c-0.073,0.142-0.146,0.281-0.222,0.42c-0.012,0.019-0.021,0.038-0.032,0.058
				c-0.007,0.012-0.014,0.025-0.02,0.037c-0.021,0.038-0.042,0.077-0.062,0.115c-0.001,0-0.001,0.001-0.002,0.002
				c-0.098,0.175-0.194,0.348-0.293,0.519c-0.015,0.026-0.029,0.051-0.044,0.077c-0.008,0.012-0.015,0.024-0.022,0.037
				c-0.019,0.033-0.039,0.067-0.058,0.1c-0.003,0.003-0.004,0.008-0.008,0.012c-0.021,0.036-0.041,0.071-0.062,0.105
				c-0.001,0.002-0.003,0.005-0.006,0.008c-0.02,0.035-0.04,0.069-0.062,0.103c-0.002,0.007-0.007,0.012-0.01,0.017
				c-0.018,0.031-0.037,0.062-0.055,0.092c-0.021,0.034-0.04,0.067-0.062,0.1c-0.002,0.002-0.002,0.004-0.003,0.006
				c-0.003,0.004-0.007,0.009-0.009,0.014c-0.009,0.014-0.017,0.026-0.024,0.039c-1.167,1.891-2.504,3.555-4.022,5.008
				c-1.073,1.026-2.234,1.945-3.488,2.762c-0.023,0.016-0.047,0.03-0.069,0.046c-0.005,0.003-0.01,0.006-0.014,0.008
				c-0.077,0.05-0.155,0.1-0.234,0.15c-0.03,0.019-0.058,0.037-0.087,0.055c-1.189,0.743-2.458,1.397-3.81,1.969
				c-1.021,0.43-2.091,0.813-3.207,1.149c-0.013,0.005-0.028,0.009-0.042,0.013c-0.039,0.011-0.077,0.024-0.118,0.035
				c-0.021,0.007-0.047,0.013-0.07,0.021c-0.029,0.009-0.059,0.017-0.087,0.026c-0.027,0.008-0.056,0.016-0.082,0.022
				c-0.027,0.008-0.055,0.016-0.082,0.024c-0.028,0.008-0.057,0.016-0.084,0.023c-0.026,0.009-0.054,0.016-0.079,0.023
				c-0.029,0.007-0.059,0.016-0.085,0.025c-0.027,0.007-0.056,0.014-0.082,0.022c-0.028,0.007-0.057,0.015-0.083,0.022
				c-0.036,0.01-0.072,0.02-0.11,0.03c-0.017,0.005-0.036,0.01-0.054,0.016c-0.056,0.014-0.11,0.028-0.166,0.043
				c-0.016,0.004-0.031,0.008-0.045,0.012c-0.044,0.011-0.085,0.022-0.126,0.033c-0.018,0.003-0.032,0.008-0.047,0.011
				c-0.045,0.012-0.088,0.023-0.131,0.034c-0.013,0.003-0.026,0.007-0.039,0.011c-0.048,0.011-0.094,0.022-0.142,0.035
				c-0.01,0.001-0.019,0.004-0.028,0.007c-0.055,0.012-0.108,0.027-0.162,0.039c-0.003,0-0.005,0.001-0.007,0.001
				c-0.842,0.205-1.71,0.386-2.602,0.545c-0.002,0-0.004,0.001-0.007,0.001c-0.055,0.01-0.107,0.021-0.16,0.029
				c-0.014,0.001-0.03,0.004-0.044,0.007c-0.035,0.006-0.071,0.012-0.106,0.019c-0.152,0.026-0.306,0.05-0.459,0.075
				c-0.043,0.007-0.085,0.014-0.129,0.021c-0.01,0.001-0.021,0.003-0.032,0.004c-0.02,0.004-0.043,0.007-0.063,0.01
				c-0.432,0.067-0.868,0.13-1.312,0.187c-3.768,0.483-7.94,0.603-12.541,0.415c-5.452-0.226-10.598-0.936-15.335-2.19
				c-4.728-1.248-9.035-3.037-12.838-5.419c-3.778-2.369-7.04-5.313-9.697-8.885C202.14,97.013,200.112,92.866,198.766,88.078z"/>
		</defs>
		<clipPath id="SVGID_106_">
			<use xlink:href="#SVGID_105_"  overflow="visible"/>
		</clipPath>
		
			<linearGradient id="SVGID_107_" gradientUnits="userSpaceOnUse" x1="-109.937" y1="760.2944" x2="-108.937" y2="760.2944" gradientTransform="matrix(0 46.4498 46.4498 0 -35077.0898 5194.6646)">
			<stop  offset="0" style="stop-color:#3F4143"/>
			<stop  offset="1" style="stop-color:#000000"/>
		</linearGradient>
		<rect x="198.766" y="88.078" clip-path="url(#SVGID_106_)" fill="url(#SVGID_107_)" width="79.271" height="46.466"/>
	</g>
	<g>
		<path fill="#FFAB4C" d="M11.612,127.263c-0.965-0.001-1.93-0.01-2.891-0.03c-0.961-0.019-1.917-0.05-2.865-0.09l-0.871-0.038
			l0.232-0.84c0.198-0.713,1.278-4.605,3.093-11.008c1.546-5.458,4.05-14.228,7.194-25.01c3.222-11.049,6.517-22.147,9.794-32.983
			c3.763-12.447,7.477-24.454,11.037-35.686l0.138-0.436c0,0,18.129-1.729,22.521-2.151l15.438-1.487l-0.001,0.766
			c0,0.254-0.007,1.657-0.028,4.029c-0.02,2.394-0.055,5.798-0.115,10.048c-0.061,4.322-0.146,9.548-0.269,15.517
			c-0.111,5.427-0.24,10.899-0.385,16.322c1.046-2.814,2.134-5.659,3.12-8.22l1.936-5.014c1.081-2.796,2.197-5.684,3.327-8.641
			c2.135-5.585,3.842-10.172,5.374-14.433c0.684-1.904,1.724-4.575,2.826-7.402c1.673-4.297,3.57-9.168,4.515-12.139l0.136-0.425
			l0.444-0.053c1.152-0.137,28.297-3.342,33.49-3.51l0.16-0.005l0.073,0.691l0.024-0.694l0.737-0.035l0.134,0.732l-1.75,114.827
			h-0.685l-0.094-0.691l-0.065,0.695l-1.119,0.033c-1.114,0.036-2.9,0.099-5.188,0.199c-2.289,0.098-5.078,0.235-8.192,0.415
			c-3.497,0.201-6.917,0.432-10.166,0.683c-3.96,0.308-7.697,0.648-11.107,1.009l-0.939,0.1l0.187-0.927
			c0.09-0.441,0.543-2.692,1.277-6.614c0.932-4.991,1.903-10.479,2.885-16.31c1.303-7.733,2.571-15.77,3.77-23.885
			c1.09-7.363,2.127-14.821,3.095-22.254c-0.73,2.063-1.442,4.019-2.063,5.717c-0.792,2.162-1.614,4.376-2.456,6.641
			c-0.835,2.253-1.691,4.556-2.556,6.915c-2.169,5.907-3.818,10.567-5.347,15.111c-2.003,5.951-3.719,11.478-5.245,16.897
			l-0.129,0.46l-0.475,0.043c-0.159,0.015-1.031,0.091-2.536,0.206c-1.5,0.12-3.631,0.275-6.308,0.451
			c-3.033,0.199-6.258,0.387-9.589,0.56c-4.12,0.212-8.28,0.393-12.365,0.539l-0.648,0.023l-0.066-0.644
			c-0.018-0.172-0.051-0.609-0.071-1.603c-0.027-1.429-0.015-3.389,0.036-5.827c0.072-3.331,0.211-7.423,0.416-12.164
			c0.158-3.619,0.351-7.599,0.579-11.892c-0.317,1.374-0.627,2.727-0.933,4.074c-0.872,3.834-1.717,7.624-2.63,11.81
			c-0.926,4.247-1.925,8.913-3.096,14.475c-1.197,5.671-2.581,12.309-4.274,20.471l-0.098,0.474l-0.48,0.071
			c-0.141,0.021-0.922,0.133-2.211,0.296c-1.286,0.162-3.083,0.377-5.262,0.6c-2.441,0.253-4.985,0.476-7.561,0.664
			c-3.075,0.225-6.138,0.387-9.102,0.482c-0.949,0.03-1.906,0.056-2.867,0.072c-0.913,0.015-1.83,0.023-2.745,0.023H11.612z"/>
		<path fill="#FFFFFF" d="M129.238,5.029l-1.74,114.142c-0.006,0-0.036,0.001-0.095,0.002c-0.057,0.002-0.14,0.003-0.249,0.007
			c-0.108,0.003-0.241,0.007-0.401,0.013c-0.16,0.003-0.346,0.01-0.556,0.015c-1.115,0.037-2.905,0.1-5.197,0.2
			c-2.29,0.099-5.083,0.235-8.202,0.415c-3.123,0.181-6.572,0.406-10.178,0.685c-3.608,0.28-7.374,0.613-11.127,1.01
			c0.084-0.414,0.54-2.671,1.279-6.624c0.728-3.897,1.723-9.404,2.888-16.322c1.137-6.754,2.426-14.791,3.772-23.898
			c1.304-8.818,2.652-18.565,3.961-29.047c-1.264,3.872-2.711,7.924-4.266,12.169c-1.58,4.312-3.277,8.825-5.012,13.556
			c-1.766,4.807-3.577,9.848-5.354,15.129c-1.81,5.379-3.589,11.018-5.255,16.931c-0.158,0.014-1.027,0.09-2.525,0.205
			c-1.499,0.119-3.627,0.274-6.301,0.45c-2.675,0.175-5.896,0.369-9.579,0.559c-3.684,0.19-7.83,0.377-12.354,0.539
			c-0.007-0.069-0.045-0.447-0.066-1.544c-0.021-1.092-0.025-2.896,0.036-5.799c0.061-2.878,0.184-6.813,0.415-12.148
			c0.227-5.236,0.554-11.771,1.021-19.873c-0.997,4.262-1.883,8.087-2.744,11.87c-0.873,3.836-1.718,7.629-2.632,11.817
			c-0.926,4.247-1.925,8.915-3.097,14.478c-1.197,5.673-2.581,12.312-4.274,20.474c-0.141,0.02-0.916,0.131-2.198,0.294
			c-1.281,0.162-3.072,0.375-5.245,0.598c-2.173,0.226-4.729,0.458-7.54,0.662c-2.813,0.205-5.881,0.377-9.075,0.481
			c-0.944,0.03-1.898,0.055-2.855,0.071c-0.91,0.016-1.823,0.023-2.735,0.023h-0.144c-0.961-0.001-1.921-0.009-2.878-0.029
			c-0.955-0.019-1.907-0.05-2.85-0.091c0.198-0.712,1.277-4.602,3.092-11.003c1.775-6.266,4.227-14.835,7.194-25.006
			c2.863-9.822,6.175-21.021,9.79-32.976c3.461-11.447,7.178-23.507,11.035-35.678c0.191-0.018,1.241-0.116,3.046-0.288
			c1.805-0.171,4.362-0.414,7.57-0.721c3.205-0.305,7.056-0.673,11.448-1.096c4.388-0.42,9.316-0.896,14.677-1.413
			c0,0.255-0.007,1.655-0.027,4.025c-0.02,2.393-0.055,5.797-0.115,10.045c-0.061,4.32-0.146,9.544-0.268,15.512
			c-0.126,6.105-0.289,13.021-0.503,20.572c1.334-3.723,2.89-7.821,4.577-12.207c1.661-4.316,3.444-8.895,5.264-13.657
			c1.787-4.676,3.607-9.519,5.378-14.446c1.737-4.835,5.784-14.644,7.35-19.565c0,0,28.207-3.336,33.431-3.505
			c0.035-0.001,0.069-0.001,0.104-0.003c0.036-0.002,0.069-0.002,0.104-0.004c0.034,0,0.068-0.003,0.104-0.004
			C129.169,5.031,129.204,5.03,129.238,5.029 M130.647,3.566l-1.481,0.077l-0.037,0.002l-0.103,0.003h-0.036L128.96,3.65
			l-0.105,0.004l-0.101,0.004c-5.197,0.167-32.37,3.376-33.524,3.512l-0.888,0.105l-0.27,0.853
			c-0.939,2.95-2.832,7.809-4.502,12.096c-1.103,2.832-2.145,5.506-2.832,7.419c-1.53,4.258-3.236,8.84-5.368,14.42
			c-1.13,2.957-2.246,5.843-3.328,8.639c-0.659,1.707-1.306,3.38-1.936,5.015c-0.534,1.39-1.1,2.864-1.672,4.372
			c0.103-4.07,0.195-8.153,0.278-12.21c0.107-5.17,0.196-10.393,0.269-15.522c0.06-4.252,0.096-7.657,0.116-10.052
			c0.02-2.375,0.027-3.779,0.027-4.034l0.002-1.53l-1.522,0.147c-5.361,0.517-10.288,0.992-14.676,1.413
			c-4.392,0.422-8.244,0.789-11.448,1.095c-3.207,0.307-5.764,0.55-7.569,0.722l-2.079,0.196c-0.545,0.051-0.874,0.083-0.973,0.093
			l-0.909,0.09l-0.276,0.87c-3.561,11.238-7.276,23.246-11.04,35.696C21.357,67.9,18.061,79,14.839,90.052
			c-3.146,10.786-5.649,19.558-7.196,25.016c-1.808,6.378-2.895,10.292-3.094,11.011l-0.465,1.681l1.742,0.075
			c0.973,0.041,1.943,0.073,2.882,0.091c0.963,0.021,1.934,0.029,2.903,0.03h0.146c0.92,0,1.841-0.007,2.758-0.023
			c0.964-0.016,1.925-0.041,2.878-0.072c2.972-0.096,6.044-0.258,9.129-0.484c2.583-0.187,5.135-0.411,7.583-0.665
			c1.786-0.183,3.561-0.386,5.275-0.602c1.3-0.165,2.084-0.278,2.227-0.298l0.959-0.141l0.196-0.95
			c1.838-8.858,3.156-15.171,4.274-20.469c1.184-5.616,2.167-10.214,3.095-14.468c0.617-2.829,1.201-5.473,1.793-8.106
			c-0.064,1.354-0.124,2.667-0.178,3.935c-0.206,4.747-0.345,8.844-0.416,12.178c-0.052,2.448-0.064,4.418-0.036,5.856
			c0.013,0.754,0.039,1.345,0.073,1.661l0.134,1.289l1.295-0.046c4.087-0.146,8.251-0.327,12.375-0.54
			c3.334-0.172,6.562-0.362,9.6-0.561c2.995-0.196,5.089-0.353,6.319-0.451c1.507-0.115,2.383-0.192,2.542-0.207l0.949-0.087
			l0.259-0.918c1.524-5.408,3.236-10.924,5.235-16.864c1.526-4.537,3.174-9.192,5.341-15.093c0.865-2.358,1.719-4.661,2.555-6.912
			c0.799-2.15,1.579-4.254,2.335-6.312c-0.719,5.307-1.47,10.61-2.247,15.864c-1.198,8.111-2.467,16.142-3.767,23.872
			c-0.981,5.825-1.952,11.31-2.884,16.298c-0.638,3.412-1.071,5.597-1.273,6.597l-0.374,1.852l1.877-0.192
			c3.402-0.36,7.133-0.699,11.088-1.007c3.244-0.25,6.659-0.48,10.15-0.682c2.789-0.162,5.542-0.301,8.183-0.414
			c2.285-0.1,4.07-0.163,5.183-0.2l0.18-0.005l0.361-0.011l0.261-0.007l0.156-0.006l0.151-0.003l0.096-0.003l0.065-0.001l1.336-0.03
			l0.036-1.335l1.741-114.144L130.647,3.566z"/>
		<path fill="#FFAB4C" d="M363.123,26c0.197,0.012,1.29,0.083,3.055,0.189c1.769,0.107,4.215,0.247,7.123,0.398
			c2.915,0.153,6.297,0.316,9.922,0.466c3.639,0.15,7.521,0.289,11.424,0.39c0.004,0.191,0.017,1.242,0.062,3.204
			c0.048,1.975,0.128,4.883,0.264,8.793c0.138,3.958,0.335,8.968,0.614,15.125c0.286,6.279,0.659,13.793,1.15,22.673
			c-0.146-0.011-0.947-0.078-2.308-0.18c-1.357-0.103-3.271-0.24-5.645-0.388c-2.368-0.148-5.189-0.31-8.368-0.465
			c-3.169-0.153-6.693-0.3-10.476-0.416c-0.027-0.261-0.183-1.684-0.479-4.175c-0.293-2.471-0.721-5.979-1.295-10.41
			c-0.567-4.37-1.271-9.611-2.123-15.604C365.209,39.722,364.239,33.147,363.123,26"/>
		<path fill="none" stroke="#FFFFFF" stroke-width="1.387" stroke-miterlimit="10" d="M363.123,26
			c0.197,0.012,1.29,0.083,3.055,0.189c1.769,0.107,4.215,0.247,7.123,0.398c2.915,0.153,6.297,0.316,9.922,0.466
			c3.639,0.15,7.521,0.289,11.424,0.39c0.004,0.191,0.017,1.242,0.062,3.204c0.048,1.975,0.128,4.883,0.264,8.793
			c0.138,3.958,0.335,8.968,0.614,15.125c0.286,6.279,0.659,13.793,1.15,22.673c-0.146-0.011-0.947-0.078-2.308-0.18
			c-1.357-0.103-3.271-0.24-5.645-0.388c-2.368-0.148-5.189-0.31-8.368-0.465c-3.169-0.153-6.693-0.3-10.476-0.416
			c-0.027-0.261-0.183-1.684-0.479-4.175c-0.293-2.471-0.721-5.979-1.295-10.41c-0.567-4.37-1.271-9.611-2.123-15.604
			C365.209,39.722,364.239,33.147,363.123,26z"/>
		<path fill="#FFAB4C" d="M383.516,80.553c3.075,0.202,5.83,0.797,8.247,1.705c2.43,0.91,4.522,2.136,6.261,3.596
			c1.75,1.467,3.142,3.17,4.154,5.026c1.02,1.864,1.655,3.884,1.885,5.965c0.198,1.791,0.079,3.428-0.32,4.903
			c-0.398,1.481-1.077,2.798-1.992,3.937c-0.917,1.142-2.071,2.106-3.418,2.882c-1.349,0.777-2.888,1.364-4.572,1.753
			c-0.566,0.131-1.149,0.238-1.745,0.323c-0.596,0.087-1.206,0.149-1.829,0.188c-0.625,0.04-1.26,0.058-1.907,0.051
			c-0.645-0.005-1.305-0.036-1.97-0.089c-3.177-0.252-6.055-0.858-8.59-1.777c-2.524-0.913-4.706-2.137-6.508-3.629
			c-1.791-1.485-3.2-3.235-4.194-5.209c-0.987-1.963-1.562-4.147-1.689-6.514c-0.083-1.553,0.062-3.017,0.432-4.362
			c0.366-1.341,0.964-2.567,1.789-3.65c0.821-1.079,1.875-2.019,3.158-2.79c1.283-0.769,2.801-1.371,4.556-1.778
			c0.58-0.135,1.186-0.248,1.82-0.34c0.635-0.09,1.294-0.162,1.981-0.207c0.686-0.045,1.4-0.067,2.143-0.064
			C381.95,80.473,382.719,80.5,383.516,80.553"/>
		<path fill="none" stroke="#FFFFFF" stroke-width="1.387" stroke-miterlimit="10" d="M383.516,80.553
			c3.075,0.202,5.83,0.797,8.247,1.705c2.43,0.91,4.522,2.136,6.261,3.596c1.75,1.467,3.142,3.17,4.154,5.026
			c1.02,1.864,1.655,3.884,1.885,5.965c0.198,1.791,0.079,3.428-0.32,4.903c-0.398,1.481-1.077,2.798-1.992,3.937
			c-0.917,1.142-2.071,2.106-3.418,2.882c-1.349,0.777-2.888,1.364-4.572,1.753c-0.566,0.131-1.149,0.238-1.745,0.323
			c-0.596,0.087-1.206,0.149-1.829,0.188c-0.625,0.04-1.26,0.058-1.907,0.051c-0.645-0.005-1.305-0.036-1.97-0.089
			c-3.177-0.252-6.055-0.858-8.59-1.777c-2.524-0.913-4.706-2.137-6.508-3.629c-1.791-1.485-3.2-3.235-4.194-5.209
			c-0.987-1.963-1.562-4.147-1.689-6.514c-0.083-1.553,0.062-3.017,0.432-4.362c0.366-1.341,0.964-2.567,1.789-3.65
			c0.821-1.079,1.875-2.019,3.158-2.79c1.283-0.769,2.801-1.371,4.556-1.778c0.58-0.135,1.186-0.248,1.82-0.34
			c0.635-0.09,1.294-0.162,1.981-0.207c0.686-0.045,1.4-0.067,2.143-0.064C381.95,80.473,382.719,80.5,383.516,80.553z"/>
		<path fill="#FFAB4C" d="M131.068,113.305c0.054-0.499,0.344-3.229,0.826-7.879c0.478-4.601,1.139-11.041,1.936-18.977
			c0.782-7.791,1.689-16.966,2.674-27.189c1.035-10.724,2.062-21.638,3.053-32.439l0.054-0.593l0.594-0.036
			c0.236-0.015,1.532-0.09,3.942-0.222c2.411-0.131,5.935-0.321,10.632-0.557c4.7-0.239,10.577-0.529,17.689-0.865
			c3.139-0.148,6.004-0.343,9.038-0.548c3.936-0.267,8.005-0.543,13.412-0.779l0.762-0.033c0,0-0.078,1.557-0.116,2.396
			c-0.044,0.985-0.103,2.403-0.163,4.228c-0.061,1.835-0.123,4.085-0.179,6.734c-0.06,2.665-0.106,5.737-0.137,9.193l-0.006,0.656
			l-3.225,0.141c-1.521,0.066-3.674,0.164-6.375,0.293c-1.229,0.059-1.978,0.162-2.842,0.279c-0.976,0.133-2.08,0.285-4.084,0.389
			c-3.534,0.186-7.482,0.402-11.771,0.649c-0.121,1.285-0.222,2.437-0.304,3.449c-0.097,1.172-0.167,2.157-0.22,2.958
			c-0.051,0.778-0.086,1.379-0.105,1.802c0.162-0.003,0.354-0.005,0.576-0.01c0.849-0.018,2.158-0.05,4.06-0.106
			c1.907-0.058,4.411-0.139,7.65-0.261c3.244-0.122,7.226-0.28,12.086-0.487l0.782-0.033l-0.062,0.781
			c-0.013,0.167-0.053,0.654-0.106,1.496c-0.062,0.916-0.143,2.249-0.229,4.009c-0.087,1.772-0.182,3.976-0.269,6.627
			c-0.098,2.921-0.175,6.086-0.232,9.408l-0.012,0.676l-0.675,0.006c-0.218,0.001-0.742,0.006-1.662,0.02
			c-1.026,0.015-2.542,0.039-4.596,0.078c-2.051,0.04-4.638,0.092-7.807,0.164c-3.011,0.069-6.546,0.156-10.646,0.263
			c-0.07,1.349-0.123,2.55-0.164,3.602c-0.047,1.219-0.077,2.237-0.096,3.059c-0.02,0.776-0.027,1.375-0.031,1.801
			c0.421-0.049,0.997-0.111,1.728-0.183c1.805-0.175,3.854-0.342,6.091-0.493c3.025-0.201,6.309-0.367,9.758-0.492
			c4.261-0.155,8.815-0.249,13.541-0.279l0.729-0.004l-0.962,25.792l-0.621,0.043c-0.357,0.026-2.324,0.158-5.625,0.348
			c-4.245,0.246-8.812,0.479-13.572,0.691c-6.418,0.29-13.076,0.536-19.788,0.733c-8.116,0.236-16.27,0.394-24.235,0.468
			l-0.778,0.008L131.068,113.305z"/>
		<path fill="#FFFFFF" d="M194.948,23.914c-0.004,0.101-0.033,0.657-0.077,1.641c-0.045,0.986-0.103,2.406-0.163,4.235
			c-0.062,1.837-0.124,4.091-0.181,6.742c-0.059,2.668-0.104,5.743-0.136,9.202c-0.161,0.007-1.046,0.043-2.567,0.11
			c-1.52,0.065-3.676,0.164-6.379,0.293c-2.697,0.13-3.228,0.476-6.929,0.669c-3.698,0.194-7.849,0.421-12.366,0.683
			c-0.148,1.53-0.268,2.883-0.362,4.051c-0.098,1.176-0.167,2.164-0.221,2.968c-0.052,0.804-0.088,1.419-0.107,1.848
			c-0.021,0.425-0.029,0.661-0.031,0.704c0.071,0,0.465-0.004,1.315-0.021c0.852-0.018,2.162-0.049,4.067-0.107
			c1.907-0.056,4.414-0.138,7.655-0.26c3.245-0.122,7.228-0.28,12.088-0.487c-0.006,0.091-0.048,0.59-0.108,1.506
			c-0.06,0.918-0.142,2.254-0.229,4.019c-0.087,1.775-0.184,3.983-0.271,6.639c-0.088,2.676-0.17,5.809-0.23,9.419
			c-0.099,0.001-0.637,0.005-1.666,0.02c-1.027,0.015-2.544,0.04-4.6,0.079c-2.051,0.04-4.639,0.091-7.809,0.163
			c-3.168,0.075-6.915,0.165-11.289,0.281c-0.087,1.616-0.15,3.032-0.198,4.252c-0.047,1.222-0.077,2.244-0.096,3.069
			c-0.021,0.828-0.028,1.455-0.032,1.888c-0.004,0.432-0.002,0.668-0.001,0.713c0.242-0.034,1.068-0.137,2.49-0.276
			c1.422-0.14,3.44-0.314,6.069-0.491c2.63-0.175,5.872-0.351,9.736-0.493c3.872-0.14,8.373-0.245,13.521-0.277
			c-0.004,0.097-0.024,0.637-0.062,1.643c-0.039,1.009-0.093,2.485-0.166,4.462c-0.073,1.984-0.167,4.473-0.278,7.5
			c-0.112,3.049-0.246,6.65-0.402,10.841c-0.357,0.025-2.321,0.157-5.615,0.347c-3.292,0.19-7.906,0.438-13.564,0.691
			c-5.65,0.254-12.337,0.514-19.777,0.731c-7.423,0.217-15.591,0.389-24.221,0.469c0.054-0.499,0.343-3.23,0.826-7.882
			c0.479-4.601,1.139-11.042,1.936-18.979c0.782-7.791,1.69-16.967,2.675-27.192c0.963-9.974,1.992-20.891,3.053-32.442
			c0.235-0.014,1.529-0.089,3.937-0.221c2.412-0.132,5.935-0.321,10.63-0.558c4.699-0.238,10.576-0.528,17.687-0.864
			C179.623,24.905,185.275,24.336,194.948,23.914 M196.409,22.462l-1.521,0.067c-5.417,0.236-9.49,0.512-13.429,0.779
			c-3.031,0.205-5.893,0.399-9.025,0.547c-7.113,0.337-12.991,0.627-17.692,0.865c-4.696,0.237-8.222,0.426-10.634,0.558
			c-2.413,0.132-3.71,0.208-3.945,0.222l-1.188,0.073l-0.108,1.184c-0.99,10.802-2.018,21.715-3.052,32.436
			c-0.88,9.129-1.781,18.276-2.676,27.186c-0.882,8.793-1.539,15.172-1.936,18.974c-0.48,4.649-0.771,7.379-0.823,7.877l-0.168,1.55
			l1.559-0.014c7.969-0.074,16.128-0.232,24.249-0.47c6.716-0.196,13.377-0.443,19.799-0.731c4.764-0.214,9.333-0.447,13.581-0.693
			c3.142-0.181,5.171-0.315,5.634-0.348l1.242-0.088l0.046-1.243l0.216-5.795l0.187-5.046l0.112-3.023l0.167-4.478
			c0.072-1.975,0.127-3.452,0.166-4.459c0.037-1.004,0.056-1.543,0.06-1.64l0.062-1.453l-1.455,0.009
			c-4.732,0.03-9.295,0.123-13.563,0.279c-3.455,0.126-6.746,0.292-9.777,0.494c-2.244,0.151-4.301,0.317-6.112,0.495
			c-0.357,0.035-0.676,0.067-0.957,0.097c0.005-0.294,0.012-0.63,0.02-1.008c0.021-0.821,0.049-1.836,0.098-3.051
			c0.036-0.948,0.08-1.937,0.131-2.952c3.827-0.1,7.149-0.18,10.002-0.247c3.167-0.072,5.753-0.123,7.804-0.163
			c2.052-0.038,3.568-0.063,4.593-0.078c0.917-0.014,1.442-0.018,1.611-0.019l1.352-0.011l0.068-1.353
			c0.057-3.318,0.134-6.48,0.23-9.397c0.076-2.305,0.168-4.532,0.27-6.617c0.072-1.443,0.148-2.789,0.229-3.996
			c0.054-0.838,0.093-1.321,0.104-1.459l0.126-1.563l-1.563,0.04c-4.858,0.206-8.84,0.364-12.082,0.486
			c-3.236,0.122-5.739,0.204-7.645,0.261c-1.776,0.052-3.035,0.084-3.884,0.102c0.017-0.304,0.039-0.654,0.064-1.051
			c0.053-0.797,0.122-1.778,0.219-2.944c0.074-0.925,0.158-1.879,0.248-2.849c3.678-0.211,7.43-0.417,11.172-0.614
			c2.032-0.106,3.152-0.26,4.142-0.395c0.85-0.115,1.583-0.216,2.781-0.274c2.699-0.129,4.853-0.227,6.371-0.292l2.261-0.097
			l0.309-0.014l1.313-0.059l0.012-1.314c0.029-3.31,0.074-6.4,0.136-9.184c0.051-2.399,0.11-4.663,0.18-6.726
			c0.061-1.821,0.118-3.237,0.162-4.219c0.037-0.836,0.063-1.362,0.075-1.558l0.003-0.075L196.409,22.462z"/>
		<path fill="#FFAB4C" d="M382.187,126.332c-0.233-0.015-33.137-1.865-37.908-2.037l-0.543-0.02l-0.111-0.532
			c-0.021-0.079-0.617-2.212-1.457-5.206c-1.781-6.362-4.69-16.745-5.504-19.701c-1.148-0.067-2.387-0.145-3.711-0.233
			c-1.519-0.099-3.155-0.211-4.912-0.331c-1.755-0.119-3.634-0.245-5.641-0.374c-1.791-0.115-3.688-0.232-5.685-0.348l-0.39,17.103
			l-0.731-0.059c-0.222-0.017-31.6-1.972-36.373-2.15l-0.811-0.031l0.155-0.796c0.003-0.026,0.055-0.433,0.137-1.083
			c0.428-3.378,1.562-12.351,1.908-14.231c0.415-2.246,0.891-4.825,1.418-7.709l2.685-14.744l1.522-8.467l1.84-10.292l1.597-9.013
			c0.611-3.476,1.237-7.035,1.87-10.665c0.627-3.583,1.26-7.233,1.898-10.939c0.632-3.654,1.268-7.357,1.907-11.1l0.102-0.601
			l0.609,0.024c5.366,0.215,11.108,0.483,17.067,0.798c4.615,0.244,9.385,0.52,14.173,0.818c4.083,0.254,7.453,0.482,9.866,0.652
			c2.135,0.147,3.524,0.251,4.003,0.288l0.583,0.043l0.409,1.103c0.432,1.163,1.345,3.62,2.683,7.206
			c1.755,4.716,4.269,11.453,7.434,19.882c3.254,8.67,7.232,19.23,11.825,31.359c2.055,5.426,4.708,12.62,7.515,20.237
			c3.658,9.922,7.803,21.167,11.266,30.209l0.387,1.01L382.187,126.332z M318.68,71.926l11.016,0.687l-9.56-34.954
			c-0.058,0.722-0.117,1.487-0.178,2.292c-0.19,2.473-0.396,5.336-0.611,8.559c-0.22,3.263-0.449,6.9-0.682,10.887
			c-0.225,3.843-0.453,8.018-0.68,12.498L318.68,71.926z"/>
		<path fill="#FFFFFF" d="M296.032,13.491c6.002,0.239,11.769,0.518,17.057,0.797c5.277,0.279,10.081,0.563,14.167,0.817
			c4.081,0.254,7.449,0.483,9.862,0.652c2.413,0.166,3.872,0.278,4.139,0.298c0.185,0.497,1.204,3.249,2.937,7.893
			c1.756,4.716,4.271,11.454,7.435,19.883c3.255,8.671,7.233,19.231,11.827,31.361c4.777,12.612,12.702,34.579,18.78,50.448
			c-0.233-0.016-33.112-1.864-37.931-2.037c-0.015-0.075-6.295-22.45-7.103-25.43c-1.286-0.073-2.687-0.162-4.203-0.262
			c-1.519-0.099-3.154-0.21-4.91-0.33c-1.757-0.12-3.636-0.246-5.644-0.374c-2.006-0.129-4.143-0.26-6.407-0.391l-0.388,17.087
			c-0.212-0.017-31.562-1.971-36.401-2.152c0.016-0.088,1.627-13.061,2.044-15.321c0.416-2.247,0.89-4.825,1.419-7.711
			c0.396-2.167,0.82-4.491,1.271-6.965c0.446-2.455,0.92-5.052,1.413-7.78c0.487-2.7,0.995-5.53,1.523-8.467
			c0.523-2.912,1.062-5.928,1.618-9.04c0.589-3.322,1.195-6.749,1.817-10.269c0.612-3.475,1.239-7.034,1.872-10.666
			c0.626-3.582,1.26-7.233,1.898-10.939C294.756,20.938,295.391,17.235,296.032,13.491 M330.622,73.366l-10.849-39.665
			c-0.148,1.668-0.319,3.746-0.507,6.197c-0.189,2.476-0.396,5.341-0.61,8.566c-0.22,3.264-0.45,6.904-0.684,10.893
			c-0.235,4.044-0.476,8.454-0.714,13.2l1.392,0.062L330.622,73.366 M294.87,12.057l-0.205,1.201
			c-0.639,3.742-1.275,7.445-1.907,11.098c-0.638,3.705-1.271,7.355-1.897,10.938c-0.634,3.63-1.26,7.19-1.871,10.664
			c-0.541,3.064-1.072,6.06-1.588,8.978l-0.229,1.29l-0.65,3.629l-0.968,5.407l-0.217,1.199c-0.45,2.51-0.887,4.937-1.308,7.266
			c-0.493,2.728-0.966,5.325-1.412,7.778c-0.45,2.473-0.873,4.798-1.271,6.965c-0.527,2.884-1.003,5.462-1.417,7.707
			c-0.313,1.703-1.244,8.961-1.914,14.272c-0.072,0.573-0.121,0.957-0.137,1.074l-0.304,1.552l1.621,0.061
			c4.859,0.183,36.113,2.133,36.352,2.15l1.452,0.103l0.038-1.454l0.354-15.651c1.734,0.103,3.391,0.205,4.964,0.307
			c2.008,0.128,3.885,0.254,5.639,0.374c1.758,0.12,3.394,0.231,4.915,0.33c1.137,0.076,2.21,0.144,3.219,0.204
			c0.961,3.474,3.677,13.171,5.371,19.225c0.796,2.837,1.373,4.899,1.457,5.201l0.212,1.024l1.087,0.04
			c4.886,0.174,37.642,2.02,37.889,2.034l2.155,0.136l-0.77-2.015c-3.46-9.036-7.604-20.28-11.261-30.2
			c-2.808-7.618-5.461-14.813-7.518-20.243c-4.089-10.798-8.068-21.349-11.825-31.358c-3.163-8.427-5.678-15.163-7.434-19.879
			c-1.335-3.584-2.248-6.04-2.681-7.203l-0.256-0.69l-0.31-0.833l-0.886-0.066l-0.142-0.011c-0.479-0.036-1.87-0.14-4.006-0.287
			c-2.101-0.148-5.521-0.382-9.87-0.653c-4.79-0.298-9.562-0.574-14.181-0.818c-5.961-0.315-11.706-0.583-17.075-0.798
			L294.87,12.057z M318.713,71.234c0.209-4.079,0.424-8.04,0.643-11.796c0.218-3.683,0.445-7.344,0.684-10.881
			c0.161-2.416,0.322-4.716,0.48-6.862l8.252,30.166l-10.036-0.626L318.713,71.234z"/>
		<path fill="#FFAB4C" d="M245.993,24.349c6.338,0.243,11.67,1.239,16.094,2.891c4.441,1.66,7.988,3.99,10.728,6.903
			c2.763,2.937,4.712,6.47,5.939,10.523c1.235,4.092,1.733,8.723,1.576,13.806c-0.165-0.005-1.081-0.024-2.557-0.047
			c-1.475-0.025-3.513-0.055-5.927-0.082c-2.415-0.027-5.207-0.05-8.192-0.056c-2.982-0.01-6.16-0.005-9.345,0.023
			c-0.105-2.55-0.388-4.731-0.841-6.572c-0.448-1.834-1.066-3.332-1.846-4.522c-0.775-1.185-1.711-2.068-2.799-2.666
			c-1.091-0.596-2.335-0.911-3.725-0.962c-1.843-0.075-3.472,0.238-4.894,1.026c-1.422,0.791-2.641,2.058-3.653,3.898
			c-1.019,1.846-1.834,4.278-2.447,7.39c-0.621,3.14-1.038,6.982-1.252,11.647c-0.187,4.912-0.062,9.059,0.371,12.523
			c0.439,3.496,1.192,6.282,2.255,8.457c1.071,2.185,2.45,3.744,4.138,4.78c1.69,1.041,3.685,1.55,5.972,1.646
			c1.487,0.06,2.868-0.087,4.13-0.473c1.263-0.384,2.405-1.008,3.415-1.899c1.009-0.889,1.882-2.046,2.614-3.495
			c0.728-1.446,1.31-3.183,1.735-5.238l-15.854-0.12c0.007-0.08,0.044-0.529,0.095-1.375c0.051-0.843,0.117-2.075,0.182-3.728
			c0.064-1.643,0.128-3.695,0.175-6.177c0.044-2.468,0.075-5.354,0.071-8.678c0.201,0.011,1.315,0.073,3.259,0.177
			c1.941,0.1,4.715,0.247,8.232,0.42c3.521,0.171,7.792,0.372,12.729,0.592c4.941,0.22,10.547,0.459,16.74,0.703
			c0.415,9.581,0.075,17.67-1.154,24.402c-1.248,6.844-3.407,12.233-6.603,16.343c-3.228,4.153-7.494,6.972-12.905,8.674
			c-5.438,1.712-12.003,2.286-19.804,1.965c-7.261-0.301-13.971-1.46-19.902-3.615c-5.902-2.146-11.006-5.269-15.09-9.491
			c-4.041-4.179-7.063-9.412-8.865-15.793c-1.774-6.282-2.355-13.642-1.572-22.143c0.703-7.646,2.351-14.148,4.867-19.577
			c2.482-5.352,5.823-9.687,9.966-13.05c4.102-3.332,9.012-5.729,14.686-7.224C232.381,24.67,238.811,24.073,245.993,24.349"/>
		<path fill="none" stroke="#FFFFFF" stroke-width="1.387" stroke-miterlimit="10" d="M245.993,24.349
			c6.338,0.243,11.67,1.239,16.094,2.891c4.441,1.66,7.988,3.99,10.728,6.903c2.763,2.937,4.712,6.47,5.939,10.523
			c1.235,4.092,1.733,8.723,1.576,13.806c-0.165-0.005-1.081-0.024-2.557-0.047c-1.475-0.025-3.513-0.055-5.927-0.082
			c-2.415-0.027-5.207-0.05-8.192-0.056c-2.982-0.01-6.16-0.005-9.345,0.023c-0.105-2.55-0.388-4.731-0.841-6.572
			c-0.448-1.834-1.066-3.332-1.846-4.522c-0.775-1.185-1.711-2.068-2.799-2.666c-1.091-0.596-2.335-0.911-3.725-0.962
			c-1.843-0.075-3.472,0.238-4.894,1.026c-1.422,0.791-2.641,2.058-3.653,3.898c-1.019,1.846-1.834,4.278-2.447,7.39
			c-0.621,3.14-1.038,6.982-1.252,11.647c-0.187,4.912-0.062,9.059,0.371,12.523c0.439,3.496,1.192,6.282,2.255,8.457
			c1.071,2.185,2.45,3.744,4.138,4.78c1.69,1.041,3.685,1.55,5.972,1.646c1.487,0.06,2.868-0.087,4.13-0.473
			c1.263-0.384,2.405-1.008,3.415-1.899c1.009-0.889,1.882-2.046,2.614-3.495c0.728-1.446,1.31-3.183,1.735-5.238l-15.854-0.12
			c0.007-0.08,0.044-0.529,0.095-1.375c0.051-0.843,0.117-2.075,0.182-3.728c0.064-1.643,0.128-3.695,0.175-6.177
			c0.044-2.468,0.075-5.354,0.071-8.678c0.201,0.011,1.315,0.073,3.259,0.177c1.941,0.1,4.715,0.247,8.232,0.42
			c3.521,0.171,7.792,0.372,12.729,0.592c4.941,0.22,10.547,0.459,16.74,0.703c0.415,9.581,0.075,17.67-1.154,24.402
			c-1.248,6.844-3.407,12.233-6.603,16.343c-3.228,4.153-7.494,6.972-12.905,8.674c-5.438,1.712-12.003,2.286-19.804,1.965
			c-7.261-0.301-13.971-1.46-19.902-3.615c-5.902-2.146-11.006-5.269-15.09-9.491c-4.041-4.179-7.063-9.412-8.865-15.793
			c-1.774-6.282-2.355-13.642-1.572-22.143c0.703-7.646,2.351-14.148,4.867-19.577c2.482-5.352,5.823-9.687,9.966-13.05
			c4.102-3.332,9.012-5.729,14.686-7.224C232.381,24.67,238.811,24.073,245.993,24.349z"/>
	</g>
	<g>
		<defs>
			<path id="SVGID_108_" d="M367.497,45.685c0.747,5.268,1.458,10.502,2.113,15.554c0.57,4.419,0.997,7.919,1.29,10.384
				c0.111,0.947,0.203,1.739,0.275,2.373c2.845,0.097,5.743,0.216,8.641,0.356c3.168,0.155,5.981,0.317,8.343,0.466
				c2.326,0.144,4.209,0.28,5.561,0.381c-0.388-7.154-0.729-13.938-1.014-20.203c-0.254-5.586-0.459-10.66-0.61-15.076
				c-0.136-3.9-0.217-6.802-0.264-8.775c-0.01-0.45-0.02-0.85-0.027-1.207c-2.904-0.082-5.997-0.194-9.388-0.334
				c-3.61-0.148-6.98-0.312-9.882-0.465c-2.896-0.149-5.335-0.29-7.092-0.397c-0.157-0.01-0.311-0.019-0.457-0.027
				C365.851,34.327,366.693,40.022,367.497,45.685 M227.547,28.643c-5.364,1.417-10.01,3.701-13.808,6.792
				c-3.891,3.164-7.028,7.283-9.325,12.246c-2.421,5.232-3.987,11.555-4.653,18.796c-0.734,7.996-0.232,15.156,1.493,21.28
				c1.648,5.844,4.441,10.834,8.302,14.833c3.719,3.849,8.497,6.857,14.206,8.936c5.517,2.007,11.959,3.175,19.15,3.473
				c1.336,0.055,2.643,0.084,3.884,0.084c6.003,0,10.936-0.636,15.081-1.944c5.036-1.587,8.898-4.179,11.804-7.924
				c2.953-3.804,4.965-8.829,6.155-15.358c1.089-5.967,1.48-13.147,1.189-21.902c-5.399-0.218-10.324-0.428-14.719-0.624
				c-4.907-0.219-9.154-0.42-12.654-0.59c-2.813-0.138-5.146-0.26-6.954-0.354c0,0-1.966-0.103-2.281-0.12
				c-0.009,2.181-0.031,4.315-0.072,6.472c-0.042,2.247-0.099,4.329-0.174,6.19c-0.045,1.189-0.092,2.162-0.135,2.928l16.088,0.12
				l-0.516,2.491c-0.452,2.188-1.095,4.115-1.905,5.73c-0.836,1.657-1.871,3.036-3.079,4.103c-1.205,1.066-2.608,1.847-4.162,2.321
				c-1.245,0.38-2.617,0.573-4.084,0.573c-0.235,0-0.472-0.004-0.715-0.013c-2.73-0.114-5-0.751-6.938-1.946
				c-2.033-1.252-3.679-3.142-4.89-5.618c-1.176-2.409-1.972-5.376-2.438-9.073c-0.447-3.587-0.573-7.775-0.382-12.819
				c0.218-4.738,0.637-8.63,1.281-11.899c0.647-3.292,1.515-5.896,2.651-7.958c1.168-2.124,2.662-3.704,4.445-4.696
				c1.544-0.86,3.347-1.295,5.352-1.295c0.2,0,0.4,0.004,0.597,0.012c1.714,0.063,3.269,0.471,4.626,1.214
				c1.389,0.764,2.572,1.887,3.521,3.339c0.909,1.389,1.621,3.121,2.114,5.146c0.358,1.456,0.615,3.11,0.769,4.937
				c1.552-0.009,3.093-0.012,4.599-0.012l2.736,0.003c2.971,0.006,5.751,0.031,8.156,0.057c2.404,0.026,4.435,0.056,5.898,0.082
				c0.156,0.002,0.309,0.004,0.451,0.007c-0.027-4.092-0.532-7.788-1.503-11.011c-1.146-3.788-2.969-7.032-5.424-9.647
				c-2.548-2.711-5.869-4.846-9.871-6.345c-4.265-1.595-9.426-2.519-15.342-2.746c-1.096-0.042-2.188-0.064-3.246-0.064
				C237.207,26.85,232.066,27.453,227.547,28.643 M182.265,27.25c-3.027,0.207-5.889,0.4-9.036,0.549
				c-7.062,0.335-12.897,0.624-17.566,0.859c-4.661,0.237-8.159,0.425-10.552,0.556c-0.843,0.047-1.545,0.084-2.115,0.117
				c-0.935,10.176-1.9,20.429-2.869,30.507c-0.98,10.18-1.882,19.314-2.66,27.069c-0.792,7.904-1.447,14.316-1.924,18.897
				c-0.243,2.341-0.436,4.193-0.574,5.517c7.148-0.08,14.433-0.23,21.687-0.441c6.653-0.195,13.254-0.44,19.618-0.727
				c4.719-0.211,9.244-0.442,13.45-0.686c1.528-0.088,2.767-0.164,3.688-0.222l0.753-20.265c-3.893,0.041-7.649,0.128-11.196,0.257
				c-3.399,0.124-6.633,0.288-9.61,0.486c-2.195,0.147-4.203,0.311-5.968,0.484c-1.371,0.134-2.167,0.234-2.4,0.265l-2.311,0.311
				l-0.05-2.336c-0.001-0.047-0.003-0.301,0-0.768c0.005-0.439,0.013-1.075,0.034-1.91c0.018-0.832,0.049-1.858,0.095-3.088
				c0.049-1.222,0.113-2.643,0.199-4.263l0.104-1.923l1.923-0.05c4.348-0.114,8.072-0.206,11.223-0.279
				c3.153-0.072,5.727-0.124,7.768-0.163c1.818-0.035,3.212-0.058,4.218-0.073c0.053-2.585,0.116-5.06,0.193-7.384
				c0.089-2.655,0.183-4.863,0.271-6.641c0.063-1.301,0.126-2.371,0.176-3.212c-3.795,0.16-7,0.285-9.693,0.386
				c-3.227,0.122-5.723,0.205-7.622,0.26c-1.901,0.058-3.21,0.09-4.06,0.108c-0.873,0.018-1.278,0.021-1.352,0.021l-2.166-0.025
				l0.116-2.863c0.022-0.433,0.058-1.057,0.111-1.874c0.052-0.811,0.123-1.805,0.22-2.986c0.097-1.173,0.215-2.53,0.363-4.065
				l0.172-1.779l1.78-0.103c4.495-0.259,8.622-0.485,12.301-0.68c1.875-0.098,2.866-0.233,3.826-0.364
				c0.887-0.122,1.724-0.237,3.065-0.302c2.69-0.127,4.834-0.226,6.348-0.292l0.579-0.025c0.029-2.656,0.067-5.061,0.113-7.202
				c0.059-2.65,0.121-4.9,0.181-6.736c0.05-1.459,0.096-2.66,0.135-3.587C189.003,26.793,185.586,27.025,182.265,27.25
				 M319.107,74.57l-2.695-0.328l-0.116-1.479c0.238-4.729-0.026-5.115,0.212-9.145c0.23-3.976,0.766-9.268,0.983-12.523
				c0.214-3.219,0.465-6.795,0.652-9.263c0.188-2.451,0.367-6.096,0.518-7.763c0,0,0.081-1.222,0.561-1.5
				c0.938-0.539,1.312,0.399,1.312,0.399l12.503,42.634L319.107,74.57z M296.029,25.424c-0.637,3.69-1.264,7.325-1.888,10.892
				c-0.629,3.614-1.253,7.159-1.86,10.619l-1.581,8.948l-1.832,10.274l-1.518,8.429l-1.401,7.745l-1.264,6.934
				c-0.525,2.873-0.999,5.441-1.412,7.677c-0.296,1.608-1.261,9.17-1.729,12.892c7.131,0.374,25.441,1.506,31.786,1.901
				l0.384-16.995l2.153,0.123c2.255,0.132,4.383,0.262,6.379,0.391c1.998,0.129,3.867,0.254,5.617,0.373
				c1.743,0.118,3.365,0.23,4.873,0.329c1.5,0.099,2.886,0.187,4.158,0.259l1.499,0.086l0.393,1.451
				c0.554,2.041,3.709,13.329,5.596,20.076c0.501,1.793,0.834,2.976,1.051,3.759c6.327,0.296,25.348,1.353,32.996,1.782
				c-1.52-4.009-3.263-8.673-5.382-14.404l-1.763-4.761l4.595,2.146c0.66,0.308,1.269,0.561,1.865,0.778
				c2.375,0.862,5.062,1.417,7.989,1.649c0.621,0.051,1.229,0.079,1.812,0.083l0.238,0.002c0.508,0,1.008-0.017,1.506-0.049
				c0.566-0.036,1.12-0.092,1.654-0.171c0.534-0.076,1.059-0.172,1.559-0.287c1.48-0.343,2.819-0.854,3.971-1.52
				c1.131-0.652,2.077-1.449,2.812-2.369c0.743-0.925,1.279-1.985,1.594-3.154c0.334-1.243,0.422-2.626,0.257-4.108
				c-0.198-1.81-0.747-3.548-1.631-5.165c-0.896-1.647-2.12-3.127-3.637-4.402c-1.593-1.34-3.482-2.425-5.614-3.225
				c-2.286-0.859-4.842-1.387-7.599-1.568c-0.748-0.048-1.477-0.074-2.166-0.075h-0.114c-0.646,0-1.272,0.021-1.874,0.06
				c-0.585,0.038-1.193,0.102-1.805,0.189c-0.57,0.082-1.12,0.185-1.634,0.305c-1.496,0.348-2.818,0.863-3.926,1.526
				c-1.029,0.619-1.889,1.377-2.537,2.232l-0.111,0.159l-2.288,3.149l-1.35-3.652c-1.449-3.925-2.786-7.525-3.94-10.57
				c-4.565-12.075-8.519-22.587-11.752-31.218c-3.146-8.39-5.645-15.099-7.39-19.792c-1.14-3.061-1.97-5.298-2.452-6.602
				c-0.688-0.05-1.62-0.117-2.772-0.197c-2.392-0.169-5.731-0.395-9.781-0.648c-4.747-0.295-9.476-0.57-14.057-0.812
				c-5.236-0.277-10.303-0.517-15.093-0.717C297.083,19.293,296.554,22.376,296.029,25.424 M98.079,11.02
				c-1.034,3.028-2.662,7.212-4.12,10.962c-1.087,2.797-2.115,5.437-2.781,7.298c-1.528,4.257-3.231,8.838-5.358,14.416
				c-1.125,2.947-2.235,5.825-3.312,8.611l-1.92,4.984c-1.445,3.759-3.01,7.308-4.43,11.274c0,0-1.829,1.76-2.781,1.394
				c-0.95-0.368-0.438-2.493-0.438-2.493c0.296-10.459,0.301-16.893,0.366-20.081c0.121-5.935-0.206-10.729-0.146-15.026
				c0.06-4.222-0.286-7.214-0.266-9.594c0.005-0.634,0.009-1.198,0.014-1.689L60.621,22.26c-4.366,0.421-20.554,1.965-20.554,1.965
				C36.66,35.013,33.115,46.5,29.526,58.389c-3.252,10.776-6.524,21.811-9.721,32.799c-3.125,10.729-5.609,19.446-7.144,24.872
				c-1.037,3.663-1.832,6.499-2.357,8.382c0.052,0.001,0.105,0.002,0.156,0.003c0.937,0.018,1.876,0.028,2.818,0.029h0.138
				c0.895,0,1.791-0.009,2.687-0.023c0.94-0.016,1.876-0.041,2.804-0.07c2.909-0.095,5.913-0.255,8.93-0.474
				c2.535-0.186,5.033-0.405,7.432-0.653c2.14-0.221,3.902-0.431,5.163-0.59c0.256-0.034,0.49-0.063,0.704-0.091
				c1.548-7.47,2.831-13.63,3.949-18.938c1.165-5.542,2.16-10.193,3.081-14.423c0.909-4.176,1.749-7.956,2.618-11.78
				c0.856-3.769,1.738-7.579,2.729-11.824l4.109,0.594c-0.424,7.371-0.764,14.016-1.015,19.748c-0.2,4.7-0.339,8.752-0.409,12.044
				c-0.051,2.448-0.055,4.072-0.044,5.102c3.371-0.13,6.779-0.283,10.158-0.458c3.298-0.17,6.49-0.358,9.49-0.556
				c2.645-0.173,4.75-0.327,6.235-0.444c0.4-0.032,0.754-0.06,1.061-0.083c1.428-4.995,3.023-10.1,4.857-15.558
				c1.528-4.547,3.173-9.206,5.337-15.11c0.86-2.349,1.712-4.646,2.544-6.89c0.835-2.251,1.65-4.451,2.436-6.6
				c1.238-3.385,2.952-4.759,4.332-8.988c0,0,1.235-3.79,2.664-3.68c1.451,0.111,0.956,3.386,0.956,3.386
				c-1.201,9.632-2.217,17.523-3.632,27.102c-1.193,8.093-2.457,16.109-3.755,23.827c-0.977,5.82-1.946,11.298-2.875,16.28
				c-0.288,1.545-0.534,2.83-0.73,3.849c2.621-0.256,5.404-0.499,8.305-0.726c3.246-0.251,6.663-0.481,10.153-0.684
				c3.111-0.18,5.897-0.316,8.18-0.414c1.859-0.082,3.387-0.139,4.495-0.176L128.03,7.806C121.276,8.32,103.125,10.428,98.079,11.02
				"/>
		</defs>
		<clipPath id="SVGID_109_">
			<use xlink:href="#SVGID_108_"  overflow="visible"/>
		</clipPath>
		<g clip-path="url(#SVGID_109_)">
			<defs>
				<rect id="SVGID_110_" x="-143.224" y="-3.671" width="684.203" height="684.346"/>
			</defs>
			<clipPath id="SVGID_111_">
				<use xlink:href="#SVGID_110_"  overflow="visible"/>
			</clipPath>
		</g>
	</g>
	<g>
		<path fill="#FFFFFF" d="M166.322,20.564"/>
	</g>
	<path fill="none" stroke="#000000" stroke-width="2" d="M166.322,20.564"/>
</g>
</svg>
